<svg width="161" height="161" viewBox="0 0 161 161" fill="none" xmlns="http://www.w3.org/2000/svg">
<circle cx="80.5" cy="80.1094" r="79" fill="url(#paint0_linear_1560_149490)" fill-opacity="0.12" stroke="#7BA333" stroke-width="2"/>
<path d="M13.8383 76.6391C14.4314 76.7031 15.2639 76.7351 15.8079 76.7351H23.8719C24.3359 76.7351 25.0077 76.7191 25.2794 76.7031C25.2695 77.071 25.2481 77.7109 25.2558 78.1749L25.3932 86.4617C25.4025 87.0217 25.4486 87.8695 25.4885 88.3495H23.1685C23.1803 88.0935 23.1758 87.8216 23.1707 87.5176H15.8747C15.2507 87.5176 14.3395 87.5656 13.8123 87.6136L13.7744 85.3259C14.3352 85.3739 15.056 85.4219 15.776 85.4219H23.152L23.0422 78.7988H15.8582C15.1862 78.7988 14.3227 78.8308 13.8752 78.8628L13.8383 76.6391ZM31.227 75.4712C33.3272 75.7272 37.9506 76.6551 39.9783 77.359L39.1954 79.3587C37.328 78.6708 32.7671 77.6469 30.5063 77.359L31.227 75.4712ZM30.5623 79.7747C32.8567 80.1586 36.935 81.0225 38.9627 81.7264L38.2119 83.7261C36.3602 83.0222 32.2488 82.0943 29.8584 81.7104L30.5623 79.7747ZM29.8222 84.35C32.5654 84.782 37.5125 85.9338 39.718 86.7497L38.8712 88.7494C36.6963 87.8535 31.622 86.7497 29.0556 86.3658L29.8222 84.35ZM54.2521 80.3666C54.1756 80.5745 54.1326 80.8785 54.1033 81.0385C53.9909 81.9824 53.6206 84.734 53.4058 86.2538H54.4298C54.8458 86.2538 55.5815 86.2378 55.9967 86.1898L56.0309 88.2535C55.7107 88.2375 54.9261 88.2055 54.4941 88.2055H46.0781C45.5021 88.2055 45.1024 88.2215 44.4949 88.2535L44.4604 86.1738C44.8932 86.2218 45.4858 86.2538 46.0458 86.2538H51.2298C51.4312 84.894 51.7456 82.6223 51.7787 81.7264H47.4587C46.9467 81.7264 46.3235 81.7744 45.86 81.8064L45.825 79.6947C46.2418 79.7427 46.9786 79.7907 47.4106 79.7907H51.5066C51.8426 79.7907 52.4975 79.7267 52.6877 79.6147L54.2521 80.3666ZM60.1346 77.135C60.7116 77.199 61.4642 77.231 62.0082 77.231H68.6322C69.2722 77.231 69.9594 77.183 70.4066 77.135L70.445 79.4547C69.9808 79.4387 69.228 79.3907 68.668 79.3907H62.06C61.452 79.3907 60.7165 79.4227 60.173 79.4547L60.1346 77.135ZM58.9203 84.9579C59.5451 85.0059 60.2979 85.0539 60.9219 85.0539H70.1059C70.6499 85.0539 71.3213 85.0219 71.8643 84.9579L71.9049 87.4056C71.3438 87.3416 70.6233 87.3096 70.1433 87.3096H60.9593C60.3353 87.3096 59.5521 87.3576 58.9609 87.4056L58.9203 84.9579ZM79.931 75.4712C79.7456 75.8712 79.5469 76.4311 79.4245 76.7671C79.302 77.103 79.1649 77.519 78.9958 77.9349H85.8918C86.3078 77.9349 87.0276 77.9189 87.554 77.8229L87.5903 80.0146C86.9972 79.9506 86.2933 79.9506 85.9253 79.9506H83.6852C83.4675 84.19 81.851 87.0537 78.9853 88.8774L76.8011 87.4216C77.3734 87.1976 77.9278 86.8617 78.3065 86.5417C79.9653 85.2619 81.2607 83.2942 81.4612 79.9506H78.0852C77.4646 81.1185 76.4952 82.4783 75.549 83.3102L73.5288 82.0943C74.6507 81.2465 75.6509 79.8067 76.2421 78.7988C76.6779 78.0629 76.9522 77.231 77.1341 76.6231C77.3173 76.0952 77.419 75.4712 77.4427 74.9753L79.931 75.4712ZM89.6639 80.5905C90.2407 80.6385 91.4095 80.6865 92.2415 80.6865H100.833C101.585 80.6865 102.288 80.6225 102.704 80.5905L102.746 83.1022C102.361 83.0862 101.544 83.0222 100.872 83.0222H92.2802C91.3682 83.0222 90.2967 83.0542 89.7055 83.1022L89.6639 80.5905ZM108.096 75.3273C109.162 75.9032 110.94 77.039 111.782 77.615L110.611 79.3907C109.705 78.7668 108.023 77.6789 106.957 77.087L108.096 75.3273ZM105.308 86.6857C107.095 86.3817 109.007 85.8538 110.735 84.894C113.43 83.3742 115.617 81.1825 116.859 78.8948L118.127 81.0705C116.676 83.2782 114.454 85.3099 111.855 86.8137C110.238 87.7416 107.963 88.5415 106.543 88.7974L105.308 86.6857ZM105.693 78.9748C106.774 79.5507 108.552 80.6545 109.378 81.2305L108.24 83.0222C107.317 82.3983 105.635 81.3104 104.554 80.7505L105.693 78.9748ZM121.98 78.9588C122.397 79.0068 123.374 79.0388 123.966 79.0388H130.014C130.398 79.0388 130.989 79.0228 131.245 79.0068C131.233 79.2147 131.241 79.7427 131.247 80.0786L131.38 88.1095C131.384 88.3655 131.409 88.9094 131.414 89.1974H129.398C129.412 89.0534 129.407 88.7974 129.403 88.5574H123.339C122.891 88.5574 122.236 88.5894 121.964 88.6054L121.932 86.6377C122.204 86.6697 122.749 86.7017 123.325 86.7017H129.373L129.337 84.574H124.233C123.625 84.574 122.858 84.59 122.49 84.606L122.459 82.7183C122.875 82.7502 123.595 82.7662 124.203 82.7662H129.307L129.275 80.8305H123.995C123.403 80.8305 122.396 80.8625 122.012 80.8945L121.98 78.9588ZM137.737 75.8392C138.869 76.5911 140.977 78.2549 141.921 79.2307L140.316 80.8945C139.47 79.9986 137.441 78.2549 136.259 77.439L137.737 75.8392ZM135.913 86.4937C138.403 86.1418 140.47 85.3259 142.006 84.398C144.716 82.7822 146.755 80.3346 147.727 78.1749L149.013 80.4306C147.833 82.5903 145.741 84.798 143.191 86.3498C141.591 87.3256 139.542 88.2215 137.292 88.6054L135.913 86.4937Z" fill="#7BA333"/>
<path d="M52.8773 100.435C52.837 97.9991 53.8131 96.0794 55.1582 94.6996L56.0774 95.1315C54.7921 96.4993 53.9207 98.2271 53.9573 100.435C53.994 102.642 54.9226 104.37 56.2533 105.738L55.3484 106.17C53.9576 104.79 52.9177 102.87 52.8773 100.435ZM61.1113 96.2114H58.8073L58.8202 96.9913H61.1242L61.1113 96.2114ZM58.8461 98.5511H61.1501L61.1364 97.7232H58.8324L58.8461 98.5511ZM62.207 99.3309H58.859L58.9687 105.942H57.8647L57.69 95.4075H62.142L62.207 99.3309ZM64.1863 98.5631H66.5623L66.5484 97.7232H64.1724L64.1863 98.5631ZM66.5233 96.2114H64.1473L64.1602 96.9913H66.5362L66.5233 96.2114ZM67.614 95.4075L67.7678 104.682C67.7771 105.246 67.6863 105.558 67.3293 105.738C67.0083 105.918 66.4805 105.93 65.7365 105.93C65.6965 105.69 65.5821 105.306 65.4693 105.018C65.3755 105.15 65.3055 105.27 65.2473 105.378C64.1503 105.078 63.3248 104.502 62.7717 103.71C62.398 104.334 61.652 104.934 60.2315 105.39C60.0959 105.174 59.7904 104.838 59.5592 104.646C61.0884 104.238 61.7263 103.626 61.9805 103.038H59.6885L59.675 102.223H62.135L62.1217 101.419H59.8537L59.8401 100.603H60.9681C60.8554 100.315 60.6698 99.9789 60.4854 99.7149L61.333 99.4509C61.603 99.8109 61.8626 100.267 61.9641 100.603H63.3921C63.5662 100.243 63.7744 99.7749 63.8768 99.4389L64.8898 99.7389C64.7148 100.039 64.5158 100.339 64.3401 100.603H65.5881L65.6017 101.419H63.1177L63.131 102.223H65.783L65.7965 103.038H63.3365C63.8411 103.794 64.702 104.334 65.8458 104.562C65.7512 104.646 65.6572 104.766 65.5632 104.886C65.9594 104.898 66.3434 104.898 66.4754 104.898C66.6194 104.898 66.6664 104.838 66.6638 104.682L66.5754 99.3549H63.1314L63.066 95.4075H67.614ZM71.543 94.9875L72.5802 95.2995C72.3169 96.0674 71.9937 96.8353 71.622 97.5792L71.7607 105.942H70.6807L70.5722 99.4029C70.2326 99.9069 69.8803 100.375 69.5151 100.783C69.4025 100.507 69.0926 99.9069 68.8962 99.6429C69.9695 98.5151 70.9603 96.7513 71.543 94.9875ZM73.8056 102.618L74.8307 102.93C74.4012 103.806 73.7218 104.802 73.0847 105.462C72.8535 105.27 72.4775 105.03 72.2354 104.898C72.8372 104.286 73.4819 103.362 73.8056 102.618ZM80.4568 102.091L79.4922 102.535C79.3924 102.307 79.2558 102.031 79.0832 101.755C78.3038 101.791 77.5124 101.827 76.733 101.863L76.8005 105.93H75.6845L75.6178 101.911C74.4306 101.959 73.3394 102.007 72.428 102.043L72.2423 100.975C72.8541 100.963 73.5739 100.951 74.3775 100.927C74.5785 100.747 74.7793 100.555 74.9799 100.351C74.3944 99.7749 73.4347 99.067 72.6227 98.587L73.2588 97.8671C73.489 97.9991 73.7435 98.1551 73.9981 98.3111C74.3272 97.8911 74.6784 97.3632 74.9825 96.8833C74.2636 96.9553 73.5566 97.0153 72.8854 97.0633C72.8455 96.8233 72.6945 96.4034 72.5707 96.1754C74.7515 95.9834 77.302 95.6475 78.7946 95.2035L79.5653 96.0914C78.6575 96.3434 77.5209 96.5473 76.3237 96.7153L76.3963 96.7513C75.8558 97.4472 75.2449 98.2391 74.7265 98.815C75.0909 99.079 75.4312 99.3429 75.6994 99.5949C76.4185 98.815 77.1006 97.9751 77.5926 97.2552L78.6324 97.7232C77.7977 98.767 76.7372 99.9429 75.7449 100.891C76.6325 100.867 77.5561 100.843 78.4795 100.807C78.2213 100.435 77.9394 100.075 77.67 99.7509L78.5634 99.3549C79.3092 100.183 80.1199 101.311 80.4568 102.091ZM77.6161 103.014L78.509 102.583C79.1567 103.29 79.9048 104.262 80.2276 104.91L79.2759 105.414C78.9888 104.742 78.2643 103.746 77.6161 103.014ZM91.7031 100.783C91.7449 103.302 90.1655 105.03 87.2565 105.45L86.5298 104.322C86.9372 104.286 87.2962 104.226 87.595 104.154C89.1252 103.806 90.4745 102.678 90.4425 100.747C90.4137 99.007 89.3348 97.6272 87.483 97.3992C87.3329 98.4791 87.1482 99.6429 86.8189 100.771C86.1395 103.218 85.166 104.574 83.978 104.574C82.79 104.574 81.6761 103.254 81.6429 101.251C81.5983 98.5631 83.9121 96.2594 86.9241 96.2594C89.8041 96.2594 91.6615 98.2751 91.7031 100.783ZM82.8529 101.131C82.8758 102.511 83.4743 103.146 83.9903 103.146C84.5303 103.146 85.0814 102.367 85.6027 100.519C85.887 99.5709 86.0849 98.4791 86.2114 97.4232C84.0572 97.7712 82.8282 99.6429 82.8529 101.131ZM101.309 97.5192H99.857C99.6743 98.0831 99.2999 98.659 98.6235 99.115C98.4995 98.875 98.1575 98.5151 97.9269 98.3591C98.9006 97.7352 99.056 96.9793 99.0451 96.3194L99.0272 95.2395L99.8344 95.4315C100.889 95.3235 102.002 95.1555 102.683 94.9635L103.414 95.6355C102.482 95.8874 101.189 96.0674 100.026 96.1514L100.03 96.3674C100.031 96.4633 100.033 96.5593 100.023 96.6673H103.971L103.985 97.5192H102.329L102.352 98.911H101.332L101.309 97.5192ZM95.9688 102.571L95.9807 103.29H101.633L101.621 102.571H95.9688ZM95.9459 101.191L95.9576 101.899H101.61L101.598 101.191H95.9459ZM95.9234 99.8349L95.9347 100.519H101.587L101.575 99.8349H95.9234ZM94.9122 103.986L94.8317 99.127H102.68L102.76 103.986H94.9122ZM96.341 97.5192H95.045C94.9127 98.2271 94.6013 98.983 93.9632 99.5829C93.8034 99.3549 93.4499 99.019 93.2075 98.875C94.0585 98.0951 94.1746 97.1352 94.1619 96.3674L94.1428 95.2155L94.9264 95.4315C95.9084 95.3115 96.9616 95.1435 97.5822 94.9396L98.3016 95.6235C97.4297 95.8754 96.2327 96.0554 95.1423 96.1514L95.1465 96.4034C95.1479 96.4873 95.1493 96.5713 95.1389 96.6673H98.5949L98.609 97.5192H97.325L97.3477 98.887H96.3637L96.341 97.5192ZM96.8928 104.022L97.9206 104.49C96.9583 105.078 95.4679 105.654 94.2733 105.978C94.0777 105.762 93.6747 105.342 93.4195 105.15C94.6516 104.91 96.0726 104.49 96.8928 104.022ZM99.6386 104.61L100.541 104.046C101.832 104.478 103.282 105.03 104.152 105.438L102.877 105.966C102.163 105.582 100.894 105.042 99.6386 104.61ZM108.533 100.435C108.574 102.87 107.598 104.79 106.252 106.17L105.333 105.738C106.619 104.37 107.49 102.642 107.453 100.435C107.417 98.2271 106.488 96.4993 105.157 95.1315L106.062 94.6996C107.453 96.0794 108.493 97.9991 108.533 100.435Z" fill="#7BA333"/>
<defs>
<linearGradient id="paint0_linear_1560_149490" x1="80.5" y1="0.109375" x2="80.5" y2="160.109" gradientUnits="userSpaceOnUse">
<stop stop-color="#7BA333"/>
<stop offset="1" stop-color="#7BA333" stop-opacity="0"/>
</linearGradient>
</defs>
</svg>
