<svg width="161" height="161" viewBox="0 0 161 161" fill="none" xmlns="http://www.w3.org/2000/svg">
<circle cx="80.5" cy="80.5469" r="79" fill="url(#paint0_linear_1560_149477)" fill-opacity="0.12" stroke="#CE3C5E" stroke-width="2"/>
<path d="M28.5348 87.8137H36.1348L36.1072 86.1499H28.5072L28.5348 87.8137ZM36.0507 82.7424H28.4507L28.478 84.3902H36.078L36.0507 82.7424ZM35.9942 79.3349H28.3942L28.4215 80.9826H36.0215L35.9942 79.3349ZM32.508 77.5111H37.996L38.209 90.3573H36.177L36.164 89.5734H28.564L28.5773 90.3733H26.6413L26.428 77.5111H30.524C30.6886 76.8232 30.8518 76.0553 30.9212 75.4154L33.2295 75.6714C33.0001 76.3113 32.7544 76.9352 32.508 77.5111ZM43.8023 75.4794L45.622 76.1833C44.6066 77.6711 43.0484 79.2229 41.6083 80.1827C41.3934 79.7668 40.9164 78.9829 40.6223 78.615C41.8413 77.8311 43.1638 76.5352 43.8023 75.4794ZM51.173 80.9506L51.1868 81.7825H52.8828L52.869 80.9506H51.173ZM51.1327 78.519L51.1462 79.3349H52.8422L52.8287 78.519H51.1327ZM54.7163 83.3183H51.2123L51.2255 84.1182H54.9055L54.9315 85.686H51.2515L51.2656 86.5339H55.5696L55.5969 88.1816H51.2929L51.3295 90.3893H49.5055L49.4689 88.1816H45.4689L45.4416 86.5339H49.4416L49.4275 85.686H46.0355L46.0095 84.1182H49.4015L49.3883 83.3183H46.2363L46.2108 81.7825H49.3628L49.349 80.9506H45.605L45.5912 80.1187C45.2954 80.6147 44.9359 81.1266 44.5601 81.6225L44.7058 90.4053H42.9138L42.8029 83.7183C42.3469 84.1982 41.906 84.6301 41.4641 84.9981C41.3135 84.5981 40.8322 83.5583 40.5526 83.0943C41.8641 82.1025 43.3418 80.5187 44.2124 78.9829L45.5819 79.5588L45.5782 79.3349H49.3222L49.3087 78.519H46.2207L46.1952 76.9832H49.2832L49.2577 75.4474H51.0817L51.1072 76.9832H54.6112L54.6502 79.3349H55.6102L55.637 80.9506H54.677L54.7163 83.3183ZM70.5727 75.6234L70.6859 82.4544C70.7005 83.3343 70.548 83.7822 69.9445 84.0542C69.3727 84.3102 68.5575 84.3582 67.4375 84.3582C67.3493 83.8622 67.0813 83.1423 66.8497 82.6784C67.5702 82.7104 68.3382 82.7104 68.5779 82.6944C68.8017 82.6784 68.8809 82.6304 68.8774 82.4224L68.7647 75.6234H70.5727ZM67.6089 76.3593L67.6985 81.7665H65.9545L65.8649 76.3593H67.6089ZM60.6185 79.3509H61.9625L61.9346 77.6711H60.5906L60.6185 79.3509ZM65.2598 88.1176H71.4678L71.497 89.8774H57.081L57.0518 88.1176H63.3078L63.2866 86.8378H58.6466L58.618 85.1101H63.258L63.2413 84.1022H62.0413L61.9903 81.0306H60.5183C60.2841 82.3424 59.6338 83.6543 58.0644 84.5341C57.8186 84.1822 57.1347 83.4623 56.7944 83.2063C57.9683 82.5984 58.4836 81.8305 58.7103 81.0306H57.0943L57.0665 79.3509H58.8745L58.8466 77.6711H57.5826L57.555 76.0073H64.819L64.8466 77.6711H63.7106L63.7385 79.3509H65.2425L65.2703 81.0306H63.7663L63.8128 83.8302H65.1888L65.21 85.1101H69.834L69.8626 86.8378H65.2386L65.2598 88.1176ZM78.7518 75.8153H80.9278C80.9161 76.0713 80.9054 76.3913 80.895 76.7272C81.0596 78.9349 81.9739 85.83 87.9883 88.6296C87.4038 89.0775 86.8386 89.7334 86.5431 90.2454C82.8974 88.4536 81.0508 85.1581 80.106 82.2145C79.2897 85.0941 77.6609 88.1816 74.3191 90.2454C73.9749 89.7494 73.3414 89.1735 72.6939 88.7256C79.0193 85.19 78.6749 77.927 78.7518 75.8153ZM95.8224 83.4463L94.7452 85.0621C94.4167 84.5501 93.8928 83.8302 93.3533 83.1423L93.4733 90.3733H91.5533L91.4506 84.1822C90.9137 85.574 90.2792 86.8698 89.558 87.7657C89.3562 87.1738 88.8949 86.3739 88.5504 85.862C89.6652 84.5821 90.6382 82.4704 91.1504 80.5507H88.9264L88.8964 78.7429H91.3604L91.3057 75.4474H93.2257L93.2804 78.7429H95.2964L95.3264 80.5507H93.3104L93.3175 80.9826C93.9663 81.5106 95.4638 83.0463 95.8224 83.4463ZM103.552 78.7429L103.582 80.5507H102.062L102.187 88.0377C102.205 89.1415 101.973 89.6374 101.322 89.9414C100.687 90.2614 99.6642 90.3093 98.2882 90.3093C98.1992 89.7654 97.8971 88.9175 97.6164 88.3896C98.4969 88.4216 99.4889 88.4216 99.7609 88.4216C100.049 88.4056 100.159 88.3256 100.155 88.0377L100.074 83.1743C98.9214 85.0781 97.4149 86.8538 95.8983 88.0217C95.57 87.5257 94.9989 86.8538 94.4963 86.4539C96.4596 85.206 98.3408 82.8704 99.4544 80.5507H95.7744L95.7444 78.7429H100L99.9463 75.4794H101.978L102.032 78.7429H103.552ZM109.234 86.5499H115.298L115.285 85.782H109.221L109.234 86.5499ZM115.251 83.7183H109.187L109.2 84.4861H115.264L115.251 83.7183ZM117.161 82.1825L117.268 88.6136C117.283 89.5095 117.066 89.9094 116.414 90.1494C115.761 90.3733 114.818 90.3893 113.522 90.3893C113.418 89.9254 113.151 89.3015 112.936 88.8695C113.705 88.9175 114.729 88.9175 114.969 88.9015C115.257 88.9015 115.336 88.8216 115.332 88.5976L115.32 87.8617H109.256L109.298 90.3893H107.394L107.257 82.1825H117.161ZM114.572 78.471H111.052C110.707 78.9189 110.331 79.3828 109.97 79.8148C111.522 79.7828 113.185 79.7668 114.865 79.7348C114.508 79.4468 114.152 79.1749 113.812 78.9349L114.572 78.471ZM119.196 78.471H116.028C117.21 79.3189 118.556 80.3907 119.273 81.2066L117.611 82.2784C117.366 81.9745 117.024 81.6225 116.634 81.2546C112.652 81.3986 108.478 81.5106 105.679 81.5745L105.603 79.8628L107.826 79.8308C108.123 79.3988 108.403 78.9189 108.652 78.471H105.02L104.992 76.8072H111.104L111.082 75.4474H113.034L113.056 76.8072H119.168L119.196 78.471ZM132.718 80.5507L134.63 81.0146C134.009 83.0943 133.095 84.9501 131.969 86.5019C132.452 87.6537 132.975 88.3256 133.487 88.3256C133.871 88.3256 134.05 87.5257 134.097 85.526C134.536 85.9739 135.215 86.3899 135.731 86.5979C135.476 89.5574 134.847 90.2614 133.359 90.2614C132.239 90.2614 131.346 89.4615 130.62 88.1496C129.818 88.9975 128.934 89.7174 127.952 90.3253C127.658 89.9094 126.957 89.1255 126.55 88.7576C127.771 88.0857 128.861 87.2058 129.771 86.1659C129.198 84.3582 128.808 82.1185 128.561 79.7188H123.921L123.949 81.4306H127.901C127.901 81.4306 127.893 81.9265 127.897 82.1505C127.905 85.51 127.832 86.9338 127.472 87.3977C127.175 87.8137 126.857 87.9577 126.379 88.0377C125.964 88.1016 125.276 88.1016 124.539 88.0857C124.498 87.5257 124.278 86.7898 123.982 86.3099C124.559 86.3579 125.103 86.3739 125.359 86.3739C125.583 86.3739 125.71 86.3419 125.836 86.1819C125.992 85.9579 126.043 85.19 126.058 83.1743H123.978C123.953 85.51 123.668 88.6296 122.389 90.5813C122.047 90.2134 121.187 89.5095 120.751 89.2855C121.935 87.3658 122.001 84.5821 121.967 82.5024L121.889 77.8311H128.417C128.372 77.0472 128.327 76.2633 128.314 75.4634H130.314C130.311 76.2633 130.34 77.0472 130.385 77.8311H132.833C132.233 77.3511 131.425 76.8392 130.762 76.4393L131.895 75.3034C132.783 75.7513 133.963 76.4872 134.532 77.0152L133.777 77.8311H135.441L135.473 79.7188H130.529C130.699 81.3186 130.948 82.8224 131.241 84.1022C131.847 83.0303 132.356 81.8465 132.718 80.5507Z" fill="#CE3C5E"/>
<path d="M58.3773 101.435C58.337 98.9991 59.3131 97.0794 60.6582 95.6996L61.5774 96.1315C60.2921 97.4993 59.4207 99.2271 59.4573 101.435C59.494 103.642 60.4226 105.37 61.7533 106.738L60.8484 107.17C59.4576 105.79 58.4177 103.87 58.3773 101.435ZM64.8868 95.9755L65.9238 96.2755C65.6727 97.0554 65.3737 97.8353 65.014 98.5792L65.1529 106.954H64.0849L63.9774 100.475C63.6614 100.955 63.3449 101.411 63.0033 101.795C62.9147 101.519 62.6046 100.907 62.4318 100.619C63.4329 99.4791 64.3521 97.7393 64.8868 95.9755ZM70.7014 103.606L70.6751 102.023H69.0071L69.0334 103.606H70.7014ZM71.9019 100.019H70.2339L70.2538 101.219H71.5258L71.5787 104.41H68.2187L68.1658 101.219H69.3658L69.3459 100.019H67.7379L67.7241 99.1911H69.3321L69.3106 97.8953H70.1986L70.2201 99.1911H71.8881L71.9019 100.019ZM67.3924 105.238H72.3364L72.2093 97.5713H67.2653L67.3924 105.238ZM66.2292 96.5995H73.2492L73.4187 106.822H72.3627L72.3527 106.222H67.4087L67.4205 106.93H66.4005L66.2292 96.5995ZM85.2031 101.783C85.2449 104.302 83.6655 106.03 80.7565 106.45L80.0298 105.322C80.4372 105.286 80.7962 105.226 81.095 105.154C82.6252 104.806 83.9745 103.678 83.9425 101.747C83.9137 100.007 82.8348 98.6272 80.983 98.3992C80.8329 99.4791 80.6482 100.643 80.3189 101.771C79.6395 104.218 78.666 105.574 77.478 105.574C76.29 105.574 75.1761 104.254 75.1429 102.251C75.0983 99.5631 77.4121 97.2594 80.4241 97.2594C83.3041 97.2594 85.1615 99.2751 85.2031 101.783ZM76.3529 102.131C76.3758 103.511 76.9743 104.146 77.4903 104.146C78.0303 104.146 78.5814 103.367 79.1027 101.519C79.387 100.571 79.5849 99.4791 79.7114 98.4232C77.5572 98.7712 76.3282 100.643 76.3529 102.131ZM92.1202 98.4712H97.0402C97.0402 98.4712 97.0348 98.8671 97.0254 99.0231C96.8419 103.882 96.6434 105.658 96.1255 106.27C95.8079 106.654 95.4979 106.774 95.0307 106.822C94.5995 106.87 93.8313 106.858 93.1227 106.822C93.0933 106.498 92.9291 106.006 92.7076 105.67C93.5008 105.742 94.2328 105.742 94.5328 105.742C94.7968 105.742 94.9402 105.706 95.0818 105.562C95.4834 105.178 95.7082 103.535 95.8471 99.611H92.0911C91.9521 102.083 91.1842 104.986 87.8097 107.002C87.6251 106.726 87.1981 106.306 86.9307 106.102C90.0211 104.314 90.7589 101.771 90.9031 99.611H87.1831L87.1642 98.4712H90.9442L90.9392 98.1712L90.9024 95.9515H92.0784L92.1152 98.1712L92.1202 98.4712ZM102.033 101.435C102.074 103.87 101.098 105.79 99.7524 107.17L98.8333 106.738C100.119 105.37 100.99 103.642 100.953 101.435C100.917 99.2271 99.9881 97.4993 98.6574 96.1315L99.5622 95.6996C100.953 97.0794 101.993 98.9991 102.033 101.435Z" fill="#CE3C5E"/>
<defs>
<linearGradient id="paint0_linear_1560_149477" x1="80.5" y1="0.546875" x2="80.5" y2="160.547" gradientUnits="userSpaceOnUse">
<stop stop-color="#CE3C5E"/>
<stop offset="1" stop-color="#CE3C5E" stop-opacity="0"/>
</linearGradient>
</defs>
</svg>
