<svg width="161" height="161" viewBox="0 0 161 161" fill="none" xmlns="http://www.w3.org/2000/svg">
<circle cx="80.5" cy="80.5059" r="79" fill="url(#paint0_linear_1560_149468)" fill-opacity="0.12" stroke="#2180AC" stroke-width="2"/>
<path d="M37.0018 75.4951C37.0101 75.991 37.4329 76.407 37.9449 76.407C38.4569 76.407 38.8661 75.991 38.8578 75.4951C38.8493 74.9832 38.4264 74.5672 37.9144 74.5672C37.4024 74.5672 36.9933 74.9832 37.0018 75.4951ZM36.0098 75.4951C35.9923 74.4393 36.842 73.5754 37.898 73.5754C38.954 73.5754 39.8323 74.4393 39.8498 75.4951C39.8671 76.535 39.0174 77.3988 37.9614 77.3988C36.9054 77.3988 36.0271 76.535 36.0098 75.4951ZM27.3661 82.0222C28.0564 80.2305 28.6269 77.9748 28.7853 75.943L31.1292 76.423C30.9929 76.8869 30.8299 77.6708 30.7717 78.0228C30.5663 79.1426 30.0269 81.3503 29.4916 82.8381C28.9413 84.3899 28.0276 86.2136 27.1995 87.4135L24.9438 86.4696C25.9301 85.1578 26.8454 83.43 27.3661 82.0222ZM35.2645 81.6863C34.6286 80.0065 33.5494 77.6388 32.8572 76.423L34.9738 75.7351C35.6502 76.9669 36.7951 79.4306 37.4288 80.9824C38.0127 82.4222 38.9031 84.9818 39.3774 86.5656L37.0221 87.3335C36.5426 85.4297 35.9331 83.414 35.2645 81.6863ZM41.7257 79.5905C42.3025 79.6385 43.4713 79.6865 44.3033 79.6865H52.8953C53.6473 79.6865 54.3503 79.6225 54.7657 79.5905L54.8074 82.1022C54.4231 82.0862 53.6061 82.0222 52.9341 82.0222H44.3421C43.4301 82.0222 42.3586 82.0542 41.7674 82.1022L41.7257 79.5905ZM68.8456 75.4951C68.8538 75.991 69.2767 76.407 69.7887 76.407C70.3007 76.407 70.7098 75.991 70.7016 75.4951C70.6931 74.9832 70.2702 74.5672 69.7582 74.5672C69.2462 74.5672 68.8371 74.9832 68.8456 75.4951ZM67.8536 75.4951C67.8361 74.4393 68.6857 73.5754 69.7417 73.5754C70.7977 73.5754 71.6761 74.4393 71.6936 75.4951C71.7108 76.535 70.8611 77.3988 69.8051 77.3988C68.7491 77.3988 67.8708 76.535 67.8536 75.4951ZM59.2098 82.0222C59.9001 80.2305 60.4707 77.9748 60.629 75.943L62.973 76.423C62.8367 76.8869 62.6737 77.6708 62.6155 78.0228C62.4101 79.1426 61.8707 81.3503 61.3353 82.8381C60.7851 84.3899 59.8713 86.2136 59.0432 87.4135L56.7876 86.4696C57.7738 85.1578 58.6892 83.43 59.2098 82.0222ZM67.1082 81.6863C66.4724 80.0065 65.3931 77.6388 64.701 76.423L66.8176 75.7351C67.494 76.9669 68.6388 79.4306 69.2726 80.9824C69.8564 82.4222 70.7469 84.9818 71.2212 86.5656L68.8659 87.3335C68.3863 85.4297 67.7769 83.414 67.1082 81.6863ZM85.3845 76.151C85.2594 76.327 84.9796 76.8229 84.8409 77.1429C84.3176 78.3907 83.45 80.1025 82.4019 81.5423C84.0087 82.9181 85.9786 84.9658 86.9417 86.1176L85.144 87.7014C84.0801 86.2616 82.5651 84.6299 81.0369 83.1741C79.3706 84.9658 77.2702 86.6296 75.0955 87.6694L73.4188 85.9417C75.9789 84.9818 78.4265 83.0301 79.9027 81.3503C80.9388 80.1505 81.8885 78.5667 82.2217 77.4308H76.7977C76.1257 77.4308 75.2473 77.5268 74.9115 77.5428L74.8739 75.2711C75.3069 75.3351 76.2837 75.3831 76.7637 75.3831H82.4117C83.0997 75.3831 83.7381 75.2871 84.0563 75.1752L85.3845 76.151ZM102.959 81.3663C103.015 84.7418 100.99 87.1255 96.9688 87.7494L95.7372 85.8457C96.3442 85.7817 96.7906 85.6857 97.221 85.5897C99.261 85.1098 100.837 83.638 100.798 81.3023C100.761 79.0946 99.5339 77.4468 97.3678 77.0789C97.1664 78.4387 96.9188 79.9105 96.4797 81.4143C95.5733 84.6458 94.2302 86.6296 92.4862 86.6296C90.7102 86.6296 89.2058 84.6778 89.161 81.9742C89.0997 78.2787 92.2475 75.1272 96.3915 75.1272C100.359 75.1272 102.901 77.8788 102.959 81.3663ZM91.2056 81.7662C91.2324 83.382 91.8854 84.1659 92.5094 84.1659C93.1814 84.1659 93.7886 83.1581 94.4088 80.9984C94.7572 79.8145 95.0387 78.4547 95.1926 77.1269C92.5617 77.6708 91.1764 80.0065 91.2056 81.7662ZM109.049 83.894L111.078 84.6778C109.901 86.0537 108.165 87.4935 106.644 88.4053C106.221 87.9894 105.507 87.3815 105.054 87.0775C106.544 86.2776 108.219 84.9658 109.049 83.894ZM113.288 84.7898L115.016 83.846C116.392 84.8218 118.401 86.3096 119.425 87.2855L117.556 88.4053C116.659 87.4295 114.73 85.8777 113.288 84.7898ZM110.237 78.3587L110.288 81.4303H113.968L113.917 78.3587H110.237ZM115.952 81.4303H119.44L119.471 83.286H104.895L104.864 81.4303H108.304L108.253 78.3587H105.373L105.343 76.519H108.223L108.173 73.5594H110.157L110.207 76.519H113.887L113.837 73.5594H115.821L115.871 76.519H118.863L118.893 78.3587H115.901L115.952 81.4303ZM131.595 81.1103L131.578 80.0865H125.802L125.819 81.1103H131.595ZM125.862 83.734H131.638L131.621 82.6941H125.845L125.862 83.734ZM135.177 77.1589H126.617C126.432 77.5908 126.231 78.0068 125.998 78.4227H133.406L133.537 86.3256C133.553 87.2695 133.385 87.7814 132.734 88.0694C132.115 88.3733 131.203 88.3893 129.907 88.3893C129.819 87.8614 129.549 87.0615 129.301 86.5496C130.118 86.5976 131.046 86.5976 131.318 86.5976C131.589 86.5816 131.684 86.5016 131.68 86.2776L131.664 85.3178H125.888L125.939 88.3733H124.051L123.936 81.4143C123.307 82.1182 122.63 82.7581 121.855 83.286C121.576 82.8701 120.956 82.1822 120.583 81.8302C122.26 80.6944 123.56 79.0146 124.489 77.1589H120.985L120.955 75.3671H125.259C125.505 74.7112 125.702 74.0713 125.851 73.4314L127.827 73.8793C127.675 74.3753 127.523 74.8712 127.339 75.3671H135.147L135.177 77.1589Z" fill="#2180AC"/>
<defs>
<linearGradient id="paint0_linear_1560_149468" x1="80.5" y1="0.505859" x2="80.5" y2="160.506" gradientUnits="userSpaceOnUse">
<stop stop-color="#2180AC"/>
<stop offset="1" stop-color="#2180AC" stop-opacity="0"/>
</linearGradient>
</defs>
</svg>
