<svg width="82" height="92" viewBox="0 0 82 92" fill="none" xmlns="http://www.w3.org/2000/svg">
<path d="M80.8198 39.6647C80.7916 41.4222 80.6333 43.1775 80.4098 44.9319C80.1885 46.556 79.902 48.1792 78.9059 49.4002C76.7161 51.9695 68.6152 49.626 65.8907 48.9963C61.0255 47.8767 56.4343 45.915 52.2503 42.918C44.0765 36.9924 38.9267 25.1904 39.1239 12.8882C39.1614 10.5449 39.3932 8.26981 39.8192 6.06296C40.8087 1.19571 41.216 0.160503 43.8868 0.0730848C57.5518 0.552489 70.6893 5.51589 77.1002 19.8773C79.9333 25.9127 81.0595 32.8322 80.8198 39.6647Z" fill="#7BA333"/>
<path d="M46.2873 60.3601C47.3674 61.2605 48.3807 62.2409 49.3607 63.2614C50.2607 64.2151 51.1273 65.2089 51.3871 66.4425C51.8867 69.0965 46.3579 72.9629 44.5973 74.3428C41.456 76.8093 37.9282 78.6823 33.9604 79.7817C26.1649 81.8938 16.23 79.1711 8.66964 72.8681C7.22958 71.6675 5.92957 70.3803 4.76961 69.0064C2.23638 65.9452 1.79645 65.1716 3.08377 63.4648C10.2471 55.1979 19.9371 49.512 32.0991 52.7353C37.28 54.0034 42.1538 56.7784 46.2873 60.3601Z" fill="#E68635"/>
<path d="M31.0396 31.6086C31.3501 32.6165 31.586 33.6473 31.7845 34.6897C31.96 35.6574 32.0982 36.6366 31.7567 37.5184C30.9849 39.391 25.9278 39.5593 24.2565 39.7063C21.2728 39.9715 18.289 39.7055 15.3452 38.7732C9.58095 36.9114 4.45005 31.1352 2.2766 24.0801C1.86261 22.7363 1.57211 21.3953 1.40509 20.0571C1.06521 17.0964 1.10519 16.4302 2.61267 15.884C10.4977 13.6184 18.9149 14.009 25.2408 21.011C27.9786 23.9277 29.9068 27.6661 31.0396 31.6086Z" fill="#2180AC"/>
</svg>
