<svg width="485" height="426" viewBox="0 0 485 426" fill="none" xmlns="http://www.w3.org/2000/svg">
<path d="M243 3L485 424H1L243 3Z" fill="white"/>
<path d="M4.45652 422L243 7.01321L481.543 422H4.45652Z" stroke="#E68635" stroke-opacity="0.04" stroke-width="4"/>
<circle cx="243" cy="130" r="129" fill="url(#paint0_linear_1560_148475)" fill-opacity="0.12" stroke="#2180AC" stroke-width="2"/>
<path d="M213.519 105.743C213.532 106.486 214.166 107.11 214.934 107.11C215.702 107.11 216.316 106.486 216.303 105.743C216.291 104.975 215.656 104.351 214.888 104.351C214.12 104.351 213.507 104.975 213.519 105.743ZM212.031 105.743C212.005 104.159 213.28 102.863 214.864 102.863C216.448 102.863 217.765 104.159 217.791 105.743C217.817 107.302 216.543 108.598 214.959 108.598C213.375 108.598 212.057 107.302 212.031 105.743ZM199.066 115.533C200.101 112.846 200.957 109.462 201.194 106.414L204.71 107.134C204.506 107.83 204.261 109.006 204.174 109.534C203.866 111.214 203.057 114.525 202.254 116.757C201.429 119.085 200.058 121.82 198.816 123.62L195.432 122.204C196.912 120.237 198.285 117.645 199.066 115.533ZM210.913 115.029C209.96 112.51 208.341 108.958 207.302 107.134L210.477 106.102C211.492 107.95 213.209 111.646 214.16 113.973C215.036 116.133 216.371 119.973 217.083 122.348L213.55 123.5C212.83 120.644 211.916 117.621 210.913 115.029ZM220.605 111.886C221.47 111.958 223.224 112.03 224.472 112.03H237.36C238.488 112.03 239.542 111.934 240.165 111.886L240.228 115.653C239.651 115.629 238.426 115.533 237.418 115.533H224.53C223.162 115.533 221.554 115.581 220.668 115.653L220.605 111.886ZM261.285 105.743C261.297 106.486 261.932 107.11 262.7 107.11C263.468 107.11 264.081 106.486 264.069 105.743C264.056 104.975 263.422 104.351 262.654 104.351C261.886 104.351 261.272 104.975 261.285 105.743ZM259.797 105.743C259.771 104.159 261.045 102.863 262.629 102.863C264.213 102.863 265.531 104.159 265.557 105.743C265.583 107.302 264.308 108.598 262.724 108.598C261.14 108.598 259.823 107.302 259.797 105.743ZM246.831 115.533C247.867 112.846 248.723 109.462 248.96 106.414L252.476 107.134C252.272 107.83 252.027 109.006 251.94 109.534C251.632 111.214 250.823 114.525 250.02 116.757C249.194 119.085 247.824 121.82 246.581 123.62L243.198 122.204C244.677 120.237 246.05 117.645 246.831 115.533ZM258.679 115.029C257.725 112.51 256.106 108.958 255.068 107.134L258.243 106.102C259.258 107.95 260.975 111.646 261.925 113.973C262.801 116.133 264.137 119.973 264.848 122.348L261.315 123.5C260.596 120.644 259.682 117.621 258.679 115.029ZM286.093 106.726C285.906 106.99 285.486 107.734 285.278 108.214C284.493 110.086 283.192 112.654 281.619 114.813C284.03 116.877 286.985 119.949 288.429 121.676L285.733 124.052C284.137 121.892 281.864 119.445 279.572 117.261C277.073 119.949 273.922 122.444 270.66 124.004L268.145 121.412C271.985 119.973 275.656 117.045 277.871 114.525C279.425 112.726 280.849 110.35 281.349 108.646H273.213C272.205 108.646 270.887 108.79 270.384 108.814L270.327 105.407C270.977 105.503 272.442 105.575 273.162 105.575H281.634C282.666 105.575 283.624 105.431 284.101 105.263L286.093 106.726ZM229.152 149.545C229.236 154.608 226.2 158.183 220.167 159.119L218.32 156.264C219.23 156.168 219.9 156.024 220.546 155.88C223.606 155.16 225.969 152.952 225.911 149.449C225.856 146.137 224.015 143.665 220.766 143.113C220.464 145.153 220.092 147.361 219.434 149.616C218.074 154.464 216.059 157.439 213.443 157.439C210.779 157.439 208.523 154.512 208.456 150.456C208.364 144.913 213.085 140.186 219.301 140.186C225.253 140.186 229.066 144.313 229.152 149.545ZM211.522 150.144C211.563 152.568 212.542 153.744 213.478 153.744C214.486 153.744 215.397 152.232 216.327 148.993C216.85 147.217 217.272 145.177 217.503 143.185C213.557 144.001 211.479 147.505 211.522 150.144ZM238.287 153.336L241.331 154.512C239.565 156.576 236.961 158.735 234.68 160.103C234.045 159.479 232.974 158.567 232.295 158.111C234.531 156.911 237.042 154.944 238.287 153.336ZM244.646 154.68L247.238 153.264C249.302 154.728 252.315 156.959 253.852 158.423L251.048 160.103C249.703 158.639 246.809 156.312 244.646 154.68ZM240.07 145.033L240.146 149.64H245.666L245.59 145.033H240.07ZM248.642 149.64H253.874L253.92 152.424H232.056L232.01 149.64H237.17L237.094 145.033H232.774L232.728 142.274H237.048L236.974 137.834H239.95L240.024 142.274H245.544L245.47 137.834H248.446L248.52 142.274H253.008L253.054 145.033H248.566L248.642 149.64ZM272.106 149.161L272.081 147.625H263.417L263.442 149.161H272.106ZM263.507 153.096H272.171L272.145 151.536H263.481L263.507 153.096ZM277.48 143.233H264.64C264.363 143.881 264.061 144.505 263.711 145.129H274.823L275.02 156.983C275.043 158.399 274.792 159.167 273.815 159.599C272.887 160.055 271.519 160.079 269.575 160.079C269.442 159.287 269.038 158.087 268.665 157.319C269.891 157.391 271.283 157.391 271.691 157.391C272.098 157.367 272.24 157.247 272.235 156.911L272.211 155.472H263.547L263.623 160.055H260.791L260.618 149.616C259.675 150.672 258.659 151.632 257.496 152.424C257.078 151.8 256.149 150.768 255.588 150.24C258.104 148.537 260.054 146.017 261.448 143.233H256.192L256.147 140.546H262.603C262.971 139.562 263.267 138.602 263.491 137.642L266.454 138.314C266.227 139.058 265.999 139.802 265.723 140.546H277.435L277.48 143.233Z" fill="#2180AC"/>
<circle cx="130" cy="296" r="129" fill="url(#paint1_linear_1560_148475)" fill-opacity="0.12" stroke="#7BA333" stroke-width="2"/>
<path d="M37.8609 287.382C38.6764 287.47 39.8211 287.514 40.5691 287.514H51.6571C52.2951 287.514 53.2188 287.492 53.5924 287.47C53.5788 287.976 53.5494 288.856 53.56 289.494L53.7489 300.889C53.7617 301.659 53.825 302.824 53.8799 303.484H50.6899C50.7061 303.132 50.6999 302.758 50.693 302.34H40.661C39.803 302.34 38.5501 302.406 37.8252 302.472L37.773 299.327C38.5441 299.393 39.5352 299.459 40.5252 299.459H50.6672L50.5162 290.352H40.6382C39.7142 290.352 38.5269 290.396 37.9116 290.44L37.8609 287.382ZM61.7703 285.777C64.6581 286.129 71.0153 287.404 73.8034 288.372L72.7269 291.122C70.1593 290.176 63.8879 288.768 60.7794 288.372L61.7703 285.777ZM60.8564 291.694C64.0112 292.222 69.6189 293.41 72.4069 294.378L71.3745 297.127C68.8285 296.159 63.1753 294.883 59.8886 294.356L60.8564 291.694ZM59.8388 297.985C63.6106 298.579 70.4129 300.163 73.4455 301.285L72.2811 304.034C69.2906 302.802 62.3135 301.285 58.7847 300.757L59.8388 297.985ZM93.4299 292.508C93.3247 292.794 93.2656 293.212 93.2252 293.432C93.0708 294.729 92.5615 298.513 92.2662 300.603H93.6742C94.2462 300.603 95.2578 300.581 95.8287 300.515L95.8758 303.352C95.4354 303.33 94.3567 303.286 93.7627 303.286H82.1907C81.3987 303.286 80.849 303.308 80.0138 303.352L79.9663 300.493C80.5614 300.559 81.3762 300.603 82.1462 300.603H89.2742C89.5512 298.733 89.9834 295.609 90.0289 294.378H84.0889C83.3849 294.378 82.528 294.444 81.8908 294.488L81.8426 291.584C82.4157 291.65 83.4288 291.716 84.0228 291.716H89.6548C90.1168 291.716 91.0173 291.628 91.2788 291.474L93.4299 292.508ZM101.518 288.064C102.312 288.152 103.346 288.196 104.094 288.196H113.202C114.082 288.196 115.027 288.13 115.642 288.064L115.695 291.254C115.057 291.232 114.022 291.166 113.252 291.166H104.166C103.33 291.166 102.318 291.21 101.571 291.254L101.518 288.064ZM99.8486 298.821C100.708 298.887 101.743 298.953 102.601 298.953H115.229C115.977 298.953 116.9 298.909 117.647 298.821L117.702 302.186C116.931 302.098 115.94 302.054 115.28 302.054H102.652C101.794 302.054 100.717 302.12 99.9044 302.186L99.8486 298.821ZM128.738 285.777C128.483 286.327 128.21 287.097 128.042 287.558C127.874 288.02 127.685 288.592 127.452 289.164H136.934C137.506 289.164 138.496 289.142 139.22 289.01L139.27 292.024C138.454 291.936 137.486 291.936 136.98 291.936H133.9C133.601 297.765 131.378 301.703 127.438 304.21L124.435 302.208C125.222 301.9 125.984 301.439 126.505 300.999C128.786 299.239 130.567 296.533 130.842 291.936H126.2C125.347 293.542 124.014 295.411 122.713 296.555L119.935 294.883C121.478 293.718 122.853 291.738 123.666 290.352C124.265 289.34 124.642 288.196 124.893 287.36C125.145 286.635 125.284 285.777 125.317 285.095L128.738 285.777ZM142.121 292.816C142.914 292.882 144.521 292.948 145.665 292.948H157.479C158.513 292.948 159.48 292.86 160.051 292.816L160.108 296.269C159.58 296.247 158.456 296.159 157.532 296.159H145.718C144.464 296.159 142.991 296.203 142.178 296.269L142.121 292.816ZM167.465 285.579C168.93 286.371 171.376 287.932 172.534 288.724L170.924 291.166C169.678 290.308 167.365 288.812 165.899 287.998L167.465 285.579ZM163.632 301.197C166.089 300.779 168.717 300.053 171.093 298.733C174.799 296.643 177.807 293.63 179.515 290.484L181.258 293.476C179.263 296.511 176.207 299.305 172.633 301.373C170.41 302.648 167.283 303.748 165.33 304.1L163.632 301.197ZM164.161 290.594C165.648 291.386 168.093 292.904 169.228 293.696L167.663 296.159C166.395 295.301 164.082 293.806 162.595 293.036L164.161 290.594ZM186.556 290.572C187.129 290.638 188.472 290.682 189.286 290.682H197.602C198.13 290.682 198.944 290.66 199.295 290.638C199.278 290.924 199.29 291.65 199.298 292.112L199.481 303.154C199.487 303.506 199.521 304.254 199.528 304.65H196.756C196.774 304.452 196.768 304.1 196.763 303.77H188.425C187.809 303.77 186.908 303.814 186.534 303.836L186.489 301.131C186.864 301.175 187.613 301.219 188.405 301.219H196.721L196.672 298.293H189.654C188.818 298.293 187.763 298.315 187.257 298.337L187.214 295.741C187.787 295.785 188.777 295.807 189.613 295.807H196.631L196.587 293.146H189.327C188.513 293.146 187.128 293.19 186.6 293.234L186.556 290.572ZM208.221 286.283C209.778 287.316 212.676 289.604 213.974 290.946L211.768 293.234C210.604 292.002 207.814 289.604 206.19 288.482L208.221 286.283ZM205.714 300.933C209.138 300.449 211.979 299.327 214.092 298.051C217.817 295.829 220.622 292.464 221.958 289.494L223.726 292.596C222.103 295.565 219.227 298.601 215.721 300.735C213.521 302.076 210.703 303.308 207.61 303.836L205.714 300.933Z" fill="#7BA333"/>
<path d="M88.0416 321.158C87.981 317.505 89.4453 314.625 91.4629 312.555L92.8417 313.203C90.9137 315.255 89.6067 317.847 89.6616 321.158C89.7165 324.47 91.1095 327.061 93.1055 329.113L91.7483 329.761C89.6619 327.691 88.1022 324.812 88.0416 321.158ZM100.393 314.823H96.9365L96.9559 315.993H100.412L100.393 314.823ZM96.9947 318.332H100.451L100.43 317.091H96.9742L96.9947 318.332ZM102.036 319.502H97.0141L97.1786 329.419H95.5226L95.2606 313.617H101.939L102.036 319.502ZM105.005 318.35H108.569L108.548 317.091H104.984L105.005 318.35ZM108.511 314.823H104.947L104.966 315.993H108.53L108.511 314.823ZM110.147 313.617L110.377 327.529C110.391 328.375 110.255 328.843 109.72 329.113C109.238 329.383 108.446 329.401 107.33 329.401C107.27 329.041 107.099 328.465 106.93 328.033C106.789 328.231 106.684 328.411 106.597 328.573C104.951 328.123 103.713 327.259 102.883 326.071C102.323 327.007 101.204 327.907 99.0729 328.591C98.8695 328.267 98.4111 327.763 98.0644 327.475C100.358 326.863 101.315 325.945 101.696 325.064H98.2584L98.2381 323.84H101.928L101.908 322.634H98.5061L98.4858 321.41H100.178C100.009 320.978 99.7303 320.474 99.4537 320.078L100.725 319.682C101.13 320.222 101.519 320.906 101.672 321.41H103.814C104.075 320.87 104.387 320.168 104.541 319.664L106.06 320.114C105.798 320.564 105.499 321.014 105.236 321.41H107.108L107.128 322.634H103.402L103.422 323.84H107.4L107.42 325.064H103.73C104.487 326.197 105.779 327.007 107.494 327.349C107.352 327.475 107.211 327.655 107.07 327.835C107.665 327.853 108.241 327.853 108.439 327.853C108.655 327.853 108.725 327.763 108.721 327.529L108.589 319.538H103.423L103.325 313.617H110.147ZM116.04 312.987L117.596 313.455C117.201 314.607 116.716 315.759 116.159 316.875L116.367 329.419H114.747L114.584 319.61C114.074 320.366 113.546 321.068 112.998 321.68C112.829 321.266 112.364 320.366 112.07 319.97C113.68 318.278 115.166 315.633 116.04 312.987ZM119.434 324.434L120.972 324.902C120.327 326.215 119.308 327.709 118.353 328.699C118.006 328.411 117.442 328.051 117.079 327.853C117.981 326.935 118.948 325.549 119.434 324.434ZM129.411 323.642L127.964 324.308C127.814 323.966 127.609 323.552 127.35 323.138C126.181 323.192 124.994 323.246 123.825 323.3L123.926 329.401H122.252L122.152 323.372C120.372 323.444 118.735 323.516 117.368 323.57L117.089 321.968C118.007 321.95 119.086 321.932 120.292 321.896C120.593 321.626 120.895 321.338 121.196 321.032C120.317 320.168 118.878 319.106 117.66 318.386L118.614 317.307C118.959 317.505 119.341 317.739 119.723 317.972C120.216 317.343 120.743 316.551 121.199 315.831C120.121 315.939 119.061 316.029 118.054 316.101C117.994 315.741 117.767 315.111 117.582 314.769C120.853 314.481 124.679 313.977 126.917 313.311L128.074 314.643C126.712 315.021 125.007 315.327 123.211 315.579L123.32 315.633C122.509 316.677 121.593 317.865 120.815 318.728C121.362 319.124 121.872 319.52 122.275 319.898C123.353 318.728 124.376 317.469 125.115 316.389L126.674 317.091C125.422 318.656 123.831 320.42 122.343 321.842C123.674 321.806 125.06 321.77 126.445 321.716C126.058 321.158 125.635 320.618 125.231 320.132L126.571 319.538C127.689 320.78 128.905 322.472 129.411 323.642ZM125.15 325.028L126.489 324.38C127.461 325.441 128.583 326.899 129.067 327.871L127.639 328.627C127.209 327.619 126.122 326.125 125.15 325.028ZM146.28 321.68C146.343 325.459 143.974 328.051 139.61 328.681L138.52 326.989C139.131 326.935 139.67 326.845 140.118 326.737C142.413 326.215 144.437 324.524 144.389 321.626C144.346 319.016 142.728 316.947 139.95 316.605C139.725 318.224 139.448 319.97 138.954 321.662C137.935 325.333 136.475 327.367 134.693 327.367C132.911 327.367 131.24 325.387 131.19 322.382C131.123 318.35 134.594 314.895 139.112 314.895C143.432 314.895 146.218 317.918 146.28 321.68ZM133.005 322.202C133.039 324.272 133.937 325.225 134.711 325.225C135.521 325.225 136.348 324.056 137.13 321.284C137.556 319.862 137.853 318.224 138.043 316.641C134.811 317.163 132.968 319.97 133.005 322.202ZM160.689 316.785H158.511C158.237 317.631 157.675 318.494 156.661 319.178C156.475 318.818 155.962 318.278 155.616 318.044C157.076 317.109 157.31 315.975 157.293 314.985L157.266 313.365L158.477 313.653C160.058 313.491 161.728 313.239 162.75 312.951L163.846 313.959C162.448 314.337 160.509 314.607 158.765 314.733L158.77 315.057C158.773 315.201 158.775 315.345 158.76 315.507H164.682L164.703 316.785H162.219L162.254 318.872H160.724L160.689 316.785ZM152.679 324.362L152.697 325.441H161.175L161.157 324.362H152.679ZM152.644 322.292L152.662 323.354H161.14L161.122 322.292H152.644ZM152.611 320.258L152.628 321.284H161.106L161.089 320.258H152.611ZM151.094 326.485L150.973 319.196H162.745L162.866 326.485H151.094ZM153.237 316.785H151.293C151.095 317.847 150.627 318.98 149.67 319.88C149.431 319.538 148.9 319.034 148.537 318.818C149.813 317.649 149.988 316.209 149.968 315.057L149.94 313.329L151.115 313.653C152.588 313.473 154.168 313.221 155.099 312.915L156.178 313.941C154.87 314.319 153.075 314.589 151.439 314.733L151.445 315.111C151.447 315.237 151.45 315.363 151.434 315.507H156.618L156.639 316.785H154.713L154.747 318.836H153.271L153.237 316.785ZM154.065 326.539L155.606 327.241C154.163 328.123 151.927 328.987 150.135 329.473C149.842 329.149 149.238 328.519 148.855 328.231C150.703 327.871 152.834 327.241 154.065 326.539ZM158.183 327.421L159.537 326.575C161.474 327.223 163.648 328.051 164.954 328.663L163.041 329.455C161.97 328.879 160.066 328.069 158.183 327.421ZM171.526 321.158C171.586 324.812 170.122 327.691 168.104 329.761L166.726 329.113C168.653 327.061 169.961 324.47 169.906 321.158C169.851 317.847 168.458 315.255 166.462 313.203L167.819 312.555C169.905 314.625 171.465 317.505 171.526 321.158Z" fill="#7BA333"/>
<circle cx="355" cy="296" r="129" fill="url(#paint2_linear_1560_148475)" fill-opacity="0.12" stroke="#CE3C5E" stroke-width="2"/>
<path d="M284.256 301.369H294.706L294.668 299.081H284.218L284.256 301.369ZM294.59 294.396H284.14L284.178 296.661H294.628L294.59 294.396ZM294.513 289.71H284.063L284.1 291.976H294.55L294.513 289.71ZM289.719 287.203H297.265L297.558 304.866H294.764L294.746 303.788H284.296L284.314 304.888H281.652L281.359 287.203H286.991C287.217 286.257 287.442 285.201 287.537 284.321L290.711 284.673C290.396 285.553 290.058 286.411 289.719 287.203ZM305.249 284.409L307.751 285.377C306.355 287.423 304.212 289.556 302.232 290.876C301.937 290.304 301.281 289.226 300.876 288.72C302.552 287.643 304.371 285.861 305.249 284.409ZM315.384 291.932L315.403 293.076H317.735L317.716 291.932H315.384ZM315.328 288.588L315.347 289.71H317.679L317.66 288.588H315.328ZM320.256 295.187H315.438L315.456 296.287H320.516L320.552 298.443H315.492L315.511 299.609H321.429L321.466 301.875H315.548L315.599 304.91H313.091L313.04 301.875H307.54L307.503 299.609H313.003L312.984 298.443H308.32L308.284 296.287H312.948L312.93 295.187H308.596L308.561 293.076H312.895L312.876 291.932H307.728L307.709 290.788C307.302 291.47 306.808 292.174 306.291 292.856L306.491 304.932H304.027L303.875 295.737C303.248 296.397 302.641 296.991 302.034 297.497C301.827 296.947 301.165 295.517 300.78 294.88C302.584 293.516 304.616 291.338 305.813 289.226L307.696 290.018L307.691 289.71H312.839L312.82 288.588H308.574L308.539 286.477H312.785L312.75 284.365H315.258L315.293 286.477H320.111L320.165 289.71H321.485L321.522 291.932H320.202L320.256 295.187ZM342.058 284.607L342.214 294C342.234 295.209 342.024 295.825 341.194 296.199C340.408 296.551 339.287 296.617 337.747 296.617C337.626 295.935 337.258 294.946 336.939 294.308C337.93 294.352 338.986 294.352 339.315 294.33C339.623 294.308 339.732 294.242 339.727 293.956L339.572 284.607H342.058ZM337.983 285.619L338.106 293.054H335.708L335.585 285.619H337.983ZM328.371 289.732H330.219L330.181 287.423H328.333L328.371 289.732ZM334.753 301.787H343.289L343.329 304.206H323.507L323.467 301.787H332.069L332.04 300.027H325.66L325.62 297.651H332L331.977 296.265H330.327L330.257 292.042H328.233C327.911 293.846 327.017 295.649 324.859 296.859C324.521 296.375 323.581 295.385 323.113 295.034C324.727 294.198 325.436 293.142 325.747 292.042H323.525L323.487 289.732H325.973L325.935 287.423H324.197L324.159 285.135H334.147L334.185 287.423H332.623L332.661 289.732H334.729L334.767 292.042H332.699L332.763 295.891H334.655L334.684 297.651H341.042L341.082 300.027H334.724L334.753 301.787ZM353.305 284.871H356.297C356.28 285.223 356.266 285.663 356.251 286.125C356.478 289.16 357.735 298.641 366.005 302.49C365.201 303.106 364.424 304.008 364.018 304.712C359.005 302.249 356.466 297.717 355.166 293.67C354.044 297.629 351.804 301.875 347.21 304.712C346.736 304.03 345.865 303.238 344.975 302.622C353.672 297.761 353.199 287.775 353.305 284.871ZM376.777 295.363L375.295 297.585C374.844 296.881 374.123 295.891 373.382 294.946L373.546 304.888H370.906L370.765 296.375C370.027 298.289 369.155 300.071 368.163 301.303C367.885 300.489 367.251 299.389 366.778 298.685C368.31 296.925 369.648 294.022 370.352 291.382H367.294L367.253 288.896H370.641L370.566 284.365H373.206L373.281 288.896H376.053L376.094 291.382H373.322L373.332 291.976C374.224 292.702 376.283 294.814 376.777 295.363ZM387.405 288.896L387.446 291.382H385.356L385.527 301.677C385.552 303.194 385.234 303.876 384.339 304.294C383.466 304.734 382.059 304.8 380.167 304.8C380.045 304.052 379.629 302.886 379.243 302.161C380.454 302.205 381.818 302.205 382.192 302.205C382.588 302.183 382.74 302.073 382.733 301.677L382.622 294.99C381.038 297.607 378.966 300.049 376.881 301.655C376.43 300.973 375.644 300.049 374.953 299.499C377.653 297.783 380.239 294.572 381.77 291.382H376.71L376.669 288.896H382.521L382.447 284.409H385.241L385.315 288.896H387.405ZM395.217 299.631H403.555L403.538 298.575H395.2L395.217 299.631ZM403.491 295.737H395.153L395.17 296.793H403.508L403.491 295.737ZM406.118 293.626L406.264 302.468C406.285 303.7 405.986 304.25 405.089 304.58C404.192 304.888 402.895 304.91 401.113 304.91C400.97 304.272 400.604 303.414 400.308 302.82C401.365 302.886 402.773 302.886 403.103 302.864C403.499 302.864 403.607 302.754 403.602 302.447L403.585 301.435H395.247L395.305 304.91H392.687L392.5 293.626H406.118ZM402.557 288.522H397.717C397.243 289.138 396.726 289.776 396.23 290.37C398.363 290.326 400.651 290.304 402.96 290.26C402.469 289.864 401.979 289.49 401.512 289.16L402.557 288.522ZM408.915 288.522H404.559C406.184 289.688 408.035 291.162 409.021 292.284L406.736 293.758C406.399 293.34 405.929 292.856 405.393 292.35C399.918 292.548 394.178 292.702 390.33 292.79L390.225 290.436L393.282 290.392C393.69 289.798 394.075 289.138 394.417 288.522H389.423L389.385 286.235H397.789L397.758 284.365H400.442L400.473 286.235H408.877L408.915 288.522ZM427.508 291.382L430.137 292.02C429.282 294.88 428.027 297.431 426.478 299.565C427.142 301.149 427.862 302.073 428.566 302.073C429.094 302.073 429.34 300.973 429.404 298.223C430.008 298.839 430.942 299.411 431.65 299.697C431.3 303.766 430.436 304.734 428.39 304.734C426.85 304.734 425.622 303.634 424.624 301.831C423.521 302.996 422.305 303.986 420.955 304.822C420.55 304.25 419.586 303.172 419.028 302.666C420.706 301.743 422.204 300.533 423.457 299.103C422.667 296.617 422.132 293.538 421.792 290.238H415.412L415.451 292.592H420.885C420.885 292.592 420.874 293.274 420.879 293.582C420.89 298.201 420.79 300.159 420.295 300.797C419.886 301.369 419.449 301.567 418.791 301.677C418.221 301.765 417.275 301.765 416.262 301.743C416.206 300.973 415.903 299.961 415.496 299.301C416.289 299.367 417.037 299.389 417.389 299.389C417.697 299.389 417.873 299.345 418.045 299.125C418.26 298.817 418.33 297.761 418.35 294.99H415.49C415.456 298.201 415.065 302.49 413.305 305.174C412.835 304.668 411.653 303.7 411.054 303.392C412.682 300.753 412.772 296.925 412.725 294.066L412.618 287.643H421.594C421.533 286.565 421.471 285.487 421.452 284.387H424.202C424.199 285.487 424.239 286.565 424.3 287.643H427.666C426.842 286.983 425.73 286.279 424.819 285.729L426.377 284.167C427.597 284.783 429.22 285.795 430.002 286.521L428.964 287.643H431.252L431.296 290.238H424.498C424.732 292.438 425.074 294.506 425.477 296.265C426.311 294.792 427.01 293.164 427.508 291.382Z" fill="#CE3C5E"/>
<path d="M322.542 321.154C322.481 317.501 323.945 314.621 325.963 312.551L327.342 313.199C325.414 315.251 324.107 317.843 324.162 321.154C324.217 324.466 325.609 327.057 327.606 329.109L326.248 329.757C324.162 327.687 322.602 324.808 322.542 321.154ZM332.306 312.965L333.861 313.415C333.485 314.585 333.036 315.755 332.497 316.871L332.705 329.433H331.103L330.942 319.714C330.468 320.434 329.993 321.118 329.481 321.694C329.348 321.28 328.882 320.362 328.623 319.93C330.125 318.221 331.504 315.611 332.306 312.965ZM341.028 324.412L340.988 322.036H338.486L338.526 324.412H341.028ZM342.828 319.03H340.326L340.356 320.83H342.264L342.344 325.618H337.304L337.224 320.83H339.024L338.994 319.03H336.582L336.562 317.789H338.974L338.942 315.845H340.274L340.306 317.789H342.808L342.828 319.03ZM336.064 326.859H343.48L343.29 315.359H335.874L336.064 326.859ZM334.319 313.901H344.849L345.104 329.235H343.52L343.505 328.335H336.089L336.106 329.397H334.576L334.319 313.901ZM362.78 321.676C362.843 325.456 360.474 328.047 356.11 328.677L355.02 326.985C355.631 326.931 356.17 326.841 356.618 326.733C358.913 326.211 360.937 324.52 360.889 321.622C360.846 319.012 359.228 316.943 356.45 316.601C356.225 318.221 355.948 319.966 355.454 321.658C354.435 325.33 352.975 327.363 351.193 327.363C349.411 327.363 347.74 325.384 347.69 322.378C347.623 318.347 351.094 314.891 355.612 314.891C359.932 314.891 362.718 317.915 362.78 321.676ZM349.505 322.198C349.539 324.268 350.437 325.222 351.211 325.222C352.021 325.222 352.848 324.052 353.63 321.28C354.056 319.858 354.353 318.221 354.543 316.637C351.311 317.159 349.468 319.966 349.505 322.198ZM373.156 316.709H380.536C380.536 316.709 380.528 317.303 380.514 317.537C380.238 324.826 379.941 327.489 379.164 328.407C378.687 328.983 378.222 329.163 377.522 329.235C376.875 329.307 375.722 329.289 374.66 329.235C374.616 328.749 374.369 328.011 374.037 327.507C375.227 327.615 376.325 327.615 376.775 327.615C377.171 327.615 377.386 327.561 377.598 327.345C378.201 326.769 378.538 324.304 378.746 318.419H373.112C372.904 322.126 371.752 326.481 366.69 329.505C366.413 329.091 365.773 328.461 365.372 328.155C370.007 325.474 371.114 321.658 371.33 318.419H365.75L365.722 316.709H371.392L371.384 316.259L371.329 312.929H373.093L373.148 316.259L373.156 316.709ZM388.026 321.154C388.086 324.808 386.622 327.687 384.604 329.757L383.226 329.109C385.153 327.057 386.461 324.466 386.406 321.154C386.351 317.843 384.958 315.251 382.962 313.199L384.319 312.551C386.405 314.621 387.965 317.501 388.026 321.154Z" fill="#CE3C5E"/>
<path d="M419.991 398.324C419.719 400.106 419.579 401.909 419.505 403.721C419.451 405.402 419.464 407.093 420.263 408.498C422.038 411.471 430.632 410.485 433.496 410.314C438.608 410.013 443.587 408.814 448.331 406.498C457.612 401.902 464.838 390.845 466.741 378.368C467.104 375.991 467.258 373.651 467.205 371.346C467.036 366.254 466.801 365.137 464.114 364.592C450.211 362.741 436.075 365.516 427.135 378.946C423.238 384.566 420.916 391.372 419.991 398.324Z" fill="#CE3C5E"/>
<path d="M66.0092 398.324C66.2811 400.106 66.421 401.909 66.4949 403.721C66.5486 405.402 66.5363 407.093 65.7375 408.498C63.9618 411.471 55.3675 410.485 52.5042 410.314C47.392 410.013 42.4128 408.814 37.6686 406.498C28.3884 401.902 21.1622 390.845 19.2587 378.368C18.8962 375.991 18.7417 373.651 18.7954 371.346C18.9642 366.254 19.1992 365.137 21.8857 364.592C35.7891 362.741 49.9254 365.516 58.8646 378.946C62.7618 384.566 65.0837 391.372 66.0092 398.324Z" fill="#7BA333"/>
<path d="M157.744 63.3238C158.015 65.1062 158.155 66.9087 158.229 68.7214C158.283 70.402 158.271 72.0926 157.472 73.498C155.696 76.471 147.102 75.4854 144.239 75.3142C139.126 75.0133 134.147 73.814 129.403 71.498C120.123 66.9017 112.897 55.8448 110.993 43.368C110.631 40.9914 110.476 38.6507 110.53 36.3458C110.699 31.2536 110.934 30.137 113.62 29.592C127.523 27.7411 141.66 30.5156 150.599 43.9457C154.496 49.5658 156.818 56.3721 157.744 63.3238Z" fill="#2180AC"/>
<defs>
<linearGradient id="paint0_linear_1560_148475" x1="243" y1="0" x2="243" y2="260" gradientUnits="userSpaceOnUse">
<stop stop-color="#2180AC"/>
<stop offset="1" stop-color="#2180AC" stop-opacity="0"/>
</linearGradient>
<linearGradient id="paint1_linear_1560_148475" x1="130" y1="166" x2="130" y2="426" gradientUnits="userSpaceOnUse">
<stop stop-color="#7BA333"/>
<stop offset="1" stop-color="#7BA333" stop-opacity="0"/>
</linearGradient>
<linearGradient id="paint2_linear_1560_148475" x1="355" y1="166" x2="355" y2="426" gradientUnits="userSpaceOnUse">
<stop stop-color="#CE3C5E"/>
<stop offset="1" stop-color="#CE3C5E" stop-opacity="0"/>
</linearGradient>
</defs>
</svg>
