<svg width="47" height="47" viewBox="0 0 47 47" fill="none" xmlns="http://www.w3.org/2000/svg">
<path d="M23.5 46.8276C36.2025 46.8276 46.5 36.5302 46.5 23.8276C46.5 11.1251 36.2025 0.827637 23.5 0.827637C10.7975 0.827637 0.5 11.1251 0.5 23.8276C0.5 36.5302 10.7975 46.8276 23.5 46.8276Z" fill="#1DA1F2"/>
<path d="M35.4469 16.7665C34.6023 17.1394 33.6994 17.3909 32.7471 17.5077C33.7174 16.9237 34.4631 16.0028 34.8135 14.9067C33.9061 15.4368 32.8953 15.8231 31.8262 16.0388C30.9682 15.1224 29.7508 14.5474 28.3941 14.5474C25.7977 14.5474 23.6908 16.6542 23.6908 19.2462C23.6908 19.619 23.7357 19.9784 23.8121 20.3198C19.9039 20.1356 16.4359 18.2579 14.118 15.4188C13.7092 16.1106 13.4801 16.9103 13.4801 17.7862C13.4801 19.4214 14.3111 20.8589 15.5734 21.7034C14.8008 21.6765 14.0775 21.4653 13.4441 21.1149V21.1733C13.4441 23.4554 15.0613 25.3556 17.2176 25.7868C16.8223 25.8946 16.4045 25.9485 15.9777 25.9485C15.6768 25.9485 15.3893 25.9216 15.1018 25.8677C15.7037 27.7364 17.4377 29.0976 19.5041 29.1335C17.9004 30.3958 15.8609 31.146 13.6732 31.146C13.3004 31.146 12.9275 31.1235 12.5547 31.0831C14.648 32.4173 17.1143 33.1944 19.7781 33.1944C28.4256 33.1944 33.1559 26.0294 33.1559 19.8257C33.1559 19.628 33.1559 19.4259 33.1424 19.2237C34.0588 18.5634 34.8629 17.7323 35.4918 16.789L35.4469 16.7665Z" fill="white"/>
</svg>
