<svg width="37" height="20" viewBox="0 0 37 20" fill="none" xmlns="http://www.w3.org/2000/svg">
<path d="M12.3218 13.5881C12.1923 14.0476 12.0287 14.4975 11.8481 14.9426C11.6771 15.3536 11.4891 15.7599 11.1427 16.0113C10.3892 16.5337 8.42505 15.3555 7.75346 15.0008C6.55384 14.3687 5.48466 13.5346 4.59434 12.457C2.85996 10.3331 2.32794 6.87649 3.23459 3.66004C3.40728 3.04738 3.62624 2.46614 3.89145 1.9163C4.48948 0.707087 4.66835 0.463577 5.37569 0.626222C8.93034 1.70168 12.0349 3.91782 12.7202 8.13412C13.0446 9.91567 12.8595 11.8108 12.3218 13.5881Z" fill="#CE3C5E"/>
<path d="M21.3018 18.4966C20.6518 18.4642 20.0042 18.3836 19.3577 18.2789C18.7594 18.1767 18.1623 18.0504 17.7229 17.6664C16.7995 16.8239 17.7682 13.8553 18.0353 12.8549C18.5106 11.0685 19.294 9.39397 20.4555 7.88311C22.7507 4.93241 27.1828 3.17439 31.733 3.40135C32.5997 3.44458 33.4388 3.55884 34.2501 3.74412C36.039 4.17124 36.417 4.33491 36.4159 5.3244C36.0674 10.3754 34.0661 15.1751 28.6711 17.3678C26.4021 18.3407 23.8273 18.6708 21.3018 18.4966Z" fill="#2180AC"/>
</svg>
