<svg width="59" height="31" viewBox="0 0 59 31" fill="none" xmlns="http://www.w3.org/2000/svg">
<path d="M19.732 21.8767C19.5221 22.6213 19.2571 23.3503 18.9645 24.0715C18.6874 24.7376 18.3828 25.3959 17.8215 25.8032C16.6005 26.6498 13.4178 24.7405 12.3296 24.1659C10.3857 23.1417 8.65323 21.7901 7.21057 20.0439C4.40021 16.6024 3.53814 11.0013 5.00726 5.78946C5.28709 4.79672 5.64188 3.85487 6.07162 2.96392C7.04067 1.00454 7.3305 0.609957 8.47667 0.873504C14.2366 2.61616 19.2671 6.20716 20.3775 13.0392C20.9033 15.926 20.6033 18.9968 19.732 21.8767Z" fill="#2180AC"/>
<path d="M34.2832 29.8281C33.2299 29.7756 32.1805 29.645 31.133 29.4754C30.1636 29.3097 29.1961 29.1051 28.4841 28.4829C26.9878 27.1177 28.5575 22.3074 28.9903 20.6865C29.7604 17.7918 31.0299 15.0784 32.9119 12.6302C36.631 7.84894 43.8126 5.00026 51.1858 5.36803C52.5902 5.43808 53.9497 5.62322 55.2644 5.92345C58.1631 6.61554 58.7756 6.88075 58.7738 8.48411C58.2091 16.6687 54.9663 24.446 46.2243 27.999C42.5477 29.5755 38.3755 30.1104 34.2832 29.8281Z" fill="#CE3C5E"/>
</svg>
