<svg width="58" height="31" viewBox="0 0 58 31" fill="none" xmlns="http://www.w3.org/2000/svg">
<path d="M19.0462 21.7122C18.8375 22.4567 18.574 23.1857 18.2831 23.9069C18.0076 24.573 17.7047 25.2313 17.1466 25.6387C15.9326 26.4852 12.7681 24.576 11.6861 24.0013C9.75341 22.9771 8.03083 21.6255 6.59643 19.8794C3.80216 16.4379 2.94501 10.8368 4.40573 5.6249C4.68396 4.63216 5.03671 3.69032 5.464 2.79937C6.4275 0.839986 6.71567 0.445407 7.85528 0.708953C13.5822 2.45161 18.5839 6.04261 19.688 12.8746C20.2108 15.7614 19.9125 18.8322 19.0462 21.7122Z" fill="#CE3C5E"/>
<path d="M33.5144 29.664C32.4671 29.6115 31.4237 29.4809 30.3823 29.3114C29.4184 29.1457 28.4564 28.941 27.7484 28.3189C26.2608 26.9536 27.8214 22.1434 28.2518 20.5224C29.0175 17.6277 30.2797 14.9143 32.1509 12.4661C35.8487 7.68488 42.9893 4.8362 50.3202 5.20397C51.7166 5.27402 53.0684 5.45916 54.3756 5.75938C57.2576 6.45148 57.8666 6.71669 57.8648 8.32004C57.3034 16.5046 54.0791 24.2819 45.3872 27.8349C41.7316 29.4114 37.5833 29.9464 33.5144 29.664Z" fill="#7BA333"/>
</svg>
