<svg width="36" height="20" viewBox="0 0 36 20" fill="none" xmlns="http://www.w3.org/2000/svg">
<path d="M11.8218 13.8337C11.6923 14.2932 11.5287 14.7431 11.3481 15.1882C11.1771 15.5992 10.9891 16.0055 10.6427 16.2569C9.88923 16.7793 7.92505 15.6011 7.25346 15.2464C6.05384 14.6144 4.98466 13.7802 4.09434 12.7026C2.35996 10.5787 1.82794 7.1221 2.73459 3.90564C2.90728 3.29299 3.12624 2.71174 3.39145 2.1619C3.98948 0.952693 4.16835 0.709183 4.87569 0.871827C8.43034 1.94729 11.5349 4.16343 12.2202 8.37973C12.5446 10.1613 12.3595 12.0564 11.8218 13.8337Z" fill="#E68635"/>
<path d="M20.8018 18.7407C20.1518 18.7083 19.5042 18.6277 18.8577 18.5231C18.2594 18.4208 17.6623 18.2945 17.2229 17.9106C16.2995 17.068 17.2682 14.0994 17.5353 13.0991C18.0106 11.3126 18.794 9.63811 19.9555 8.12725C22.2507 5.17655 26.6828 3.41853 31.233 3.64549C32.0997 3.68872 32.9388 3.80298 33.7501 3.98826C35.539 4.41538 35.917 4.57905 35.9159 5.56854C35.5674 10.6196 33.5661 15.4192 28.1711 17.6119C25.9021 18.5848 23.3273 18.915 20.8018 18.7407Z" fill="#7BA333"/>
</svg>
