<svg width="47" height="47" viewBox="0 0 47 47" fill="none" xmlns="http://www.w3.org/2000/svg">
<path d="M23.5 46.8276C36.2025 46.8276 46.5 36.5302 46.5 23.8276C46.5 11.1251 36.2025 0.827637 23.5 0.827637C10.7975 0.827637 0.5 11.1251 0.5 23.8276C0.5 36.5302 10.7975 46.8276 23.5 46.8276Z" fill="#3C5A99"/>
<path d="M25.2867 35.327V24.8513H28.8176L29.3477 20.7499H25.2867V18.1399C25.2867 16.954 25.6146 16.1499 27.3127 16.1499H29.4644V12.4933C29.0916 12.4438 27.8068 12.3315 26.3109 12.3315C23.1889 12.3315 21.0506 14.2362 21.0506 17.7356V20.7544H17.5332V24.8558H21.0506V35.327H25.2867Z" fill="white"/>
</svg>
