<svg width="58" height="31" viewBox="0 0 58 31" fill="none" xmlns="http://www.w3.org/2000/svg">
<path d="M19.0462 21.5471C18.8375 22.2917 18.574 23.0207 18.2831 23.7419C18.0076 24.408 17.7047 25.0663 17.1466 25.4737C15.9326 26.3202 12.7681 24.411 11.6861 23.8363C9.75341 22.8121 8.03083 21.4605 6.59643 19.7143C3.80216 16.2729 2.94501 10.6718 4.40573 5.45987C4.68396 4.46713 5.03671 3.52528 5.464 2.63433C6.4275 0.674947 6.71567 0.280368 7.85528 0.543914C13.5822 2.28658 18.5839 5.87757 19.688 12.7096C20.2108 15.5964 19.9125 18.6672 19.0462 21.5471Z" fill="#2180AC"/>
<path d="M33.5144 29.499C32.4671 29.4465 31.4237 29.3159 30.3823 29.1463C29.4184 28.9806 28.4564 28.776 27.7484 28.1538C26.2608 26.7886 27.8214 21.9783 28.2518 20.3574C29.0175 17.4627 30.2797 14.7493 32.1509 12.3011C35.8487 7.51984 42.9893 4.67116 50.3202 5.03893C51.7166 5.10898 53.0684 5.29412 54.3756 5.59434C57.2576 6.28644 57.8666 6.55165 57.8648 8.15501C57.3034 16.3396 54.0791 24.1169 45.3872 27.6699C41.7316 29.2464 37.5833 29.7813 33.5144 29.499Z" fill="#7BA333"/>
</svg>
