<svg width="19" height="19" viewBox="0 0 19 19" fill="none" xmlns="http://www.w3.org/2000/svg">
<g clip-path="url(#clip0_131_18611)">
<path d="M8.75 3.07812H3.5C3.10218 3.07813 2.72064 3.23616 2.43934 3.51746C2.15804 3.79877 2 4.1803 2 4.57812V15.0781C2 15.4759 2.15804 15.8575 2.43934 16.1388C2.72064 16.4201 3.10218 16.5781 3.5 16.5781H14C14.3978 16.5781 14.7794 16.4201 15.0607 16.1388C15.342 15.8575 15.5 15.4759 15.5 15.0781V9.82812" stroke="#CE3C5E" stroke-width="2" stroke-linecap="round" stroke-linejoin="round"/>
<path d="M14.375 1.95329C14.6734 1.65493 15.078 1.4873 15.5 1.4873C15.922 1.4873 16.3266 1.65493 16.625 1.95329C16.9234 2.25166 17.091 2.65634 17.091 3.07829C17.091 3.50025 16.9234 3.90493 16.625 4.20329L9.5 11.3283L6.5 12.0783L7.25 9.07829L14.375 1.95329Z" stroke="#CE3C5E" stroke-width="2" stroke-linecap="round" stroke-linejoin="round"/>
</g>
<defs>
<clipPath id="clip0_131_18611">
<rect width="18" height="18" fill="white" transform="translate(0.5 0.078125)"/>
</clipPath>
</defs>
</svg>
