<svg width="37" height="20" viewBox="0 0 37 20" fill="none" xmlns="http://www.w3.org/2000/svg">
<path d="M12.3218 13.8342C12.1923 14.2937 12.0287 14.7436 11.8481 15.1887C11.6771 15.5997 11.4891 16.006 11.1427 16.2574C10.3892 16.7798 8.42505 15.6016 7.75346 15.2469C6.55384 14.6148 5.48466 13.7807 4.59434 12.7031C2.85996 10.5792 2.32794 7.12258 3.23459 3.90613C3.40728 3.29348 3.62624 2.71223 3.89145 2.16239C4.48948 0.953181 4.66835 0.709671 5.37569 0.872315C8.93034 1.94778 12.0349 4.16392 12.7202 8.38022C13.0446 10.1618 12.8595 12.0569 12.3218 13.8342Z" fill="#CE3C5E"/>
<path d="M21.3018 18.7427C20.6518 18.7102 20.0042 18.6297 19.3577 18.525C18.7594 18.4228 18.1623 18.2965 17.7229 17.9125C16.7995 17.07 17.7682 14.1014 18.0353 13.101C18.5106 11.3146 19.294 9.64006 20.4555 8.1292C22.7507 5.17851 27.1828 3.42048 31.733 3.64744C32.5997 3.69067 33.4388 3.80493 34.2501 3.99021C36.039 4.41733 36.417 4.581 36.4159 5.57049C36.0674 10.6215 34.0661 15.4212 28.6711 17.6139C26.4021 18.5868 23.8273 18.9169 21.3018 18.7427Z" fill="#E68635"/>
</svg>
