<svg width="59" height="32" viewBox="0 0 59 32" fill="none" xmlns="http://www.w3.org/2000/svg">
<path d="M39.8442 22.3782C40.0541 23.1227 40.3191 23.8517 40.6117 24.573C40.8887 25.239 41.1934 25.8974 41.7547 26.3047C42.9757 27.1512 46.1584 25.242 47.2466 24.6674C49.1905 23.6431 50.9229 22.2916 52.3656 20.5454C55.176 17.1039 56.038 11.5028 54.5689 6.29092C54.2891 5.29818 53.9343 4.35634 53.5046 3.46539C52.5355 1.506 52.2457 1.11142 51.0995 1.37497C45.3396 3.11763 40.3091 6.70863 39.1986 13.5407C38.6729 16.4275 38.9729 19.4982 39.8442 22.3782Z" fill="#E68635"/>
<path d="M25.2929 30.3301C26.3462 30.2775 27.3957 30.147 28.4431 29.9774C29.4126 29.8117 30.3801 29.607 31.0921 28.9849C32.5884 27.6197 31.0187 22.8094 30.5859 21.1884C29.8158 18.2937 28.5463 15.5803 26.6643 13.1322C22.9452 8.35089 15.7636 5.50221 8.3904 5.86998C6.986 5.94003 5.62644 6.12517 4.31173 6.4254C1.41312 7.1175 0.800609 7.3827 0.802367 8.98606C1.36704 17.1707 4.60988 24.9479 13.3518 28.5009C17.0285 30.0774 21.2006 30.6124 25.2929 30.3301Z" fill="#CE3C5E"/>
</svg>
