<svg width="47" height="47" viewBox="0 0 47 47" fill="none" xmlns="http://www.w3.org/2000/svg">
<g clip-path="url(#clip0_131_20112)">
<path d="M23.5 46.8276C36.2025 46.8276 46.5 36.5302 46.5 23.8276C46.5 11.1251 36.2025 0.827637 23.5 0.827637C10.7975 0.827637 0.5 11.1251 0.5 23.8276C0.5 36.5302 10.7975 46.8276 23.5 46.8276Z" fill="#4CC764"/>
<path d="M38.8378 22.4881C38.8378 15.6168 31.9493 10.0278 23.4838 10.0278C15.0184 10.0278 8.12988 15.6183 8.12988 22.4881C8.12988 28.6478 13.5924 33.8055 20.9711 34.7816C21.4713 34.8894 22.1513 35.1108 22.3238 35.5391C22.479 35.9273 22.4244 36.5353 22.3741 36.9278C22.3741 36.9278 22.1944 38.0116 22.1556 38.2416C22.088 38.6298 21.8465 39.7596 23.4853 39.0696C25.124 38.3796 32.3273 33.863 35.5488 30.1557C37.774 27.7148 38.8406 25.2395 38.8406 22.4895L38.8378 22.4881Z" fill="white"/>
<path d="M33.7302 26.4556C33.8927 26.4556 34.0235 26.3248 34.0235 26.1624V25.0727C34.0235 24.9117 33.8912 24.7795 33.7302 24.7795H30.7992V23.6482H33.7302C33.8927 23.6482 34.0235 23.5174 34.0235 23.3549V22.2667C34.0235 22.1057 33.8912 21.9735 33.7302 21.9735H30.7992V20.8422H33.7302C33.8927 20.8422 34.0235 20.7114 34.0235 20.5489V19.4607C34.0235 19.2997 33.8912 19.1675 33.7302 19.1675H29.4163C29.2539 19.1675 29.123 19.2983 29.123 19.4607V19.4665V26.1566V26.1624C29.123 26.3248 29.2539 26.4556 29.4163 26.4556H33.7302Z" fill="#4CC764"/>
<path d="M17.7742 26.4556C17.9366 26.4556 18.0674 26.3248 18.0674 26.1624V25.0727C18.0674 24.9117 17.9352 24.7795 17.7742 24.7795H14.8431V19.4607C14.8431 19.2997 14.7109 19.1675 14.5499 19.1675H13.4602C13.2978 19.1675 13.167 19.2983 13.167 19.4607V26.1566V26.1624C13.167 26.3248 13.2978 26.4556 13.4602 26.4556H17.7742Z" fill="#4CC764"/>
<path d="M20.3707 19.1675H19.2825C19.1206 19.1675 18.9893 19.2988 18.9893 19.4607V26.1609C18.9893 26.3229 19.1206 26.4542 19.2825 26.4542H20.3707C20.5327 26.4542 20.6639 26.3229 20.6639 26.1609V19.4607C20.6639 19.2988 20.5327 19.1675 20.3707 19.1675Z" fill="#4CC764"/>
<path d="M27.7839 19.1675H26.6943C26.5319 19.1675 26.401 19.2983 26.401 19.4607V23.4412L23.3349 19.3012C23.3277 19.2911 23.319 19.281 23.3119 19.271C23.3119 19.271 23.3119 19.271 23.3104 19.2695C23.3047 19.2638 23.2989 19.2566 23.2932 19.2509C23.2917 19.2494 23.2889 19.248 23.2874 19.2465C23.2817 19.2422 23.2774 19.2379 23.2716 19.2336C23.2687 19.2322 23.2659 19.2293 23.263 19.2279C23.2587 19.2235 23.2529 19.2207 23.2472 19.2178C23.2443 19.2164 23.2414 19.2135 23.2385 19.212C23.2328 19.2092 23.2285 19.2063 23.2227 19.2034C23.2199 19.202 23.217 19.2005 23.2141 19.1991C23.2084 19.1962 23.2026 19.1934 23.1969 19.1919C23.194 19.1919 23.1911 19.189 23.1868 19.189C23.181 19.1876 23.1753 19.1847 23.1695 19.1833C23.1667 19.1833 23.1624 19.1819 23.1595 19.1804C23.1537 19.1804 23.148 19.1775 23.1422 19.1761C23.1379 19.1761 23.1336 19.1761 23.1293 19.1747C23.1235 19.1747 23.1192 19.1732 23.1135 19.1732C23.1077 19.1732 23.1034 19.1732 23.0977 19.1732C23.0948 19.1732 23.0905 19.1732 23.0876 19.1732H22.0052C21.8427 19.1732 21.7119 19.304 21.7119 19.4665V26.1681C21.7119 26.3305 21.8427 26.4614 22.0052 26.4614H23.0948C23.2572 26.4614 23.388 26.3305 23.388 26.1681V22.1891L26.4571 26.3349C26.4787 26.365 26.5045 26.3895 26.5333 26.4082C26.5333 26.4082 26.5362 26.4096 26.5362 26.411C26.5419 26.4154 26.5477 26.4182 26.5549 26.4225C26.5577 26.424 26.5606 26.4254 26.5635 26.4269C26.5678 26.4297 26.5735 26.4312 26.5779 26.434C26.5822 26.4369 26.5879 26.4384 26.5922 26.4398C26.5951 26.4398 26.598 26.4427 26.6009 26.4427C26.608 26.4455 26.6138 26.447 26.621 26.4484C26.621 26.4484 26.6239 26.4484 26.6253 26.4484C26.6497 26.4542 26.6756 26.4585 26.7015 26.4585H27.7839C27.9464 26.4585 28.0772 26.3277 28.0772 26.1652V19.4636C28.0772 19.3012 27.9464 19.1704 27.7839 19.1704V19.1675Z" fill="#4CC764"/>
</g>
<defs>
<clipPath id="clip0_131_20112">
<rect width="46" height="46" fill="white" transform="translate(0.5 0.827637)"/>
</clipPath>
</defs>
</svg>
