<svg width="150" height="50" viewBox="0 0 150 50" fill="none" xmlns="http://www.w3.org/2000/svg">
<path d="M66.6804 23.4199V39.3999H62.9004V23.4199H66.6804Z" fill="#CE3C5E"/>
<path d="M73.79 23.4199H77.52V30.5499C78.67 29.3199 82.27 25.7199 84.48 23.4199H89.01L81.99 30.0599L89.27 39.3999H84.74L79.38 32.2999L77.54 33.9099V39.3999H73.81V23.4199H73.79Z" fill="#CE3C5E"/>
<path d="M95.1206 33.6199L94.6406 26.1899V23.4199H98.5106V26.2099L98.0506 33.6099H95.1206V33.6199ZM94.7606 39.4099V35.5699H98.3306V39.4099H94.7606Z" fill="#CE3C5E"/>
<path d="M108.81 23.4199V39.3999H105.03V23.4199H108.81Z" fill="#CE3C5E"/>
<path d="M115.931 23.4199H119.661V30.5499C120.811 29.3199 124.411 25.7199 126.621 23.4199H131.151L124.131 30.0599L131.411 39.3999H126.881L121.521 32.2999L119.681 33.9099V39.3999H115.951V23.4199H115.931Z" fill="#CE3C5E"/>
<path d="M137.26 33.6199L136.78 26.1899V23.4199H140.65V26.2099L140.19 33.6099H137.26V33.6199ZM136.89 39.4099V35.5699H140.46V39.4099H136.89Z" fill="#CE3C5E"/>
<path d="M84.46 45.2402C84.07 45.5102 83.45 45.8702 82.98 46.1102C82.88 45.9402 82.69 45.6602 82.54 45.5102C83.77 44.9502 85.21 43.9002 85.93 42.9902L86.65 43.5502C86.62 43.5902 86.57 43.6202 86.49 43.6102C86.11 43.9902 85.68 44.3802 85.22 44.7302L85.39 44.7902C85.38 44.8402 85.33 44.8902 85.24 44.9002V47.5202H84.46V45.2402Z" fill="#02543C"/>
<path d="M96.2803 46.03L96.4403 47.45L95.6803 47.54L95.5303 46.13L93.9003 46.35L93.8203 45.63L95.4603 45.41L95.3703 44.64L94.0603 44.82L93.9803 44.1L95.3003 43.92L95.2003 43.04L96.1103 43C96.1103 43.06 96.0803 43.11 95.9803 43.14L96.0503 43.83L97.3203 43.65L97.4003 44.38L96.1303 44.55L96.2103 45.31L97.8503 45.09L97.9303 45.81L96.2803 46.03Z" fill="#02543C"/>
<path d="M106.89 45.2402C106.5 45.5102 105.88 45.8702 105.41 46.1102C105.31 45.9402 105.12 45.6602 104.97 45.5102C106.2 44.9502 107.64 43.9002 108.36 42.9902L109.08 43.5502C109.05 43.5902 109 43.6202 108.92 43.6102C108.54 43.9902 108.11 44.3802 107.65 44.7302L107.82 44.7902C107.81 44.8402 107.76 44.8902 107.67 44.9002V47.5202H106.89V45.2402Z" fill="#02543C"/>
<path d="M118.71 46.03L118.87 47.45L118.11 47.54L117.96 46.13L116.33 46.35L116.25 45.63L117.89 45.41L117.8 44.64L116.49 44.82L116.41 44.1L117.73 43.92L117.63 43.04L118.54 43C118.54 43.06 118.51 43.11 118.41 43.14L118.48 43.83L119.75 43.65L119.83 44.38L118.56 44.55L118.64 45.31L120.28 45.09L120.36 45.81L118.71 46.03Z" fill="#02543C"/>
<path d="M24.2304 24.1502L23.8504 24.3902C23.5804 24.5502 23.1804 24.8002 23.0404 24.7802C22.9004 24.7602 22.6104 24.3502 22.4604 24.1302C21.6004 22.9302 21.1704 21.5602 21.6904 20.1502C22.1404 18.9302 23.0704 18.3902 24.1604 17.7202C24.3104 17.6302 24.4304 17.6002 24.5404 17.6202C24.6504 17.6402 24.7804 17.7302 24.9204 17.8702C25.9204 18.9402 26.3804 20.1802 26.2204 21.3602C26.0504 22.4702 25.3704 23.4402 24.2304 24.1502Z" fill="#CD3758"/>
<path d="M20.27 23.9509C18.24 23.3409 16.29 21.6909 16.29 19.5409C16.29 18.2309 16.56 17.2109 17.14 16.3209C17.24 16.1709 17.26 16.1709 17.33 16.1709C17.37 16.1709 17.41 16.1709 17.47 16.1809C17.95 16.2609 18.41 16.3909 18.89 16.5309C18.98 16.5609 19.06 16.5809 19.15 16.6009C19.18 16.7309 19.21 16.8709 19.24 17.0009C19.38 17.6709 19.53 18.3709 20.04 18.9809C20.33 19.3209 20.28 19.6209 20.11 20.0509C19.56 21.3609 19.62 22.6809 20.27 23.9509Z" fill="#E68635"/>
<path d="M44.9703 30.79C42.8603 30.79 41.2503 29.41 40.8703 27.28C40.7903 26.82 40.9103 26.66 41.4203 26.58C41.9403 26.5 42.3003 26.46 42.5903 26.46C42.6203 26.46 42.6603 26.46 42.6903 26.46C42.7803 26.46 42.8403 26.46 42.9003 26.46C46.1603 26.46 46.8403 29.12 46.9703 30.27C46.9803 30.38 46.9903 30.42 46.8003 30.48C46.1803 30.68 45.5603 30.79 44.9703 30.79Z" fill="#D5464B"/>
<path d="M16.8102 24.3204C16.3302 24.6804 15.4102 24.9404 14.7102 25.0304C14.5102 25.0604 14.3002 25.0704 14.0902 25.0804H14.0602C13.0902 25.0804 12.1102 24.7404 11.3602 24.1604C10.8302 23.7404 10.0702 22.8404 10.0802 22.3804C10.0802 22.3004 10.1102 22.2604 10.1602 22.2304C11.1302 21.5604 12.2102 21.1904 13.1802 21.1904C13.4302 21.1904 13.6802 21.2104 13.9202 21.2604C15.4402 21.5804 16.4402 22.8504 16.9002 23.5804C16.9702 23.6904 17.0302 23.8004 17.0502 23.8904C17.0802 24.0304 16.9802 24.2004 16.8102 24.3204Z" fill="#CD3758"/>
<path d="M32.2303 13.3707C32.1503 13.3707 32.0203 13.3407 31.8003 13.2207C30.4803 12.5007 29.6703 11.5407 29.4603 10.4507C29.2403 9.35066 29.6503 8.18066 30.6203 7.07066C30.7003 6.98066 30.7503 6.95066 30.7703 6.93066C30.8203 6.94066 30.9803 7.02066 31.0303 7.04066L31.1203 7.08066C31.6403 7.32066 32.1303 7.66066 32.5603 8.06066C33.0903 8.57066 33.4203 9.03066 33.5503 9.47066C33.8103 10.3007 33.6903 11.2607 33.2303 12.1507C33.0803 12.4507 32.8903 12.7507 32.6503 13.0607C32.4303 13.3707 32.2903 13.3707 32.2303 13.3707Z" fill="#D5464B"/>
<path d="M38.1297 13.7501C37.6797 14.7501 36.6297 15.5301 35.2397 15.8901C35.1997 15.9001 35.1797 15.9001 35.1597 15.9001C35.1197 15.9001 35.0697 15.8501 35.0197 15.7501C34.6397 15.0601 34.4397 14.4001 34.4297 13.8401C34.5297 12.1101 35.5097 11.1001 37.5997 10.5901C37.6297 10.5801 37.6397 10.5801 37.6397 10.5801C37.6397 10.5801 37.6697 10.6201 37.7497 10.7401C38.4097 11.7901 38.5397 12.8301 38.1297 13.7501Z" fill="#CD3758"/>
<path d="M20.58 29.4606C20.62 32.0606 18.49 33.0206 16.47 33.0506H16.46C16.31 33.0506 16.2 33.0306 16.13 32.7806C15.82 31.6706 16.06 30.5606 16.77 29.7306C17.51 28.8706 18.68 28.3906 20.05 28.3906C20.17 28.3906 20.28 28.3906 20.4 28.4006C20.41 28.4006 20.42 28.4006 20.43 28.4006C20.44 28.4106 20.46 28.4406 20.49 28.5106C20.58 28.6906 20.57 28.9006 20.57 29.1106C20.57 29.2506 20.57 29.3606 20.58 29.4606Z" fill="#CD3758"/>
<path d="M29.1399 20.2801C29.0899 20.2801 29.0199 20.2801 28.8699 20.0201C28.2799 19.0101 28.2299 17.8801 28.7399 16.9201C29.2499 15.9601 30.2599 15.2901 31.5099 15.0901C31.5499 15.0801 31.5799 15.0801 31.6099 15.0801C31.6799 15.0801 31.7399 15.0801 31.8499 15.3101C32.0899 15.8101 32.3499 16.4701 32.2999 17.1201V17.1501C32.3899 18.7001 30.8099 19.9501 29.2299 20.2601C29.1899 20.2801 29.1599 20.2801 29.1399 20.2801Z" fill="#D5464B"/>
<path d="M28.8706 13.3107C28.8706 13.3407 28.8706 13.3607 28.8706 13.3907C28.8906 14.8307 27.9106 16.2707 26.5706 16.8007C26.5206 16.8207 26.4906 16.8207 26.4806 16.8207C26.4706 16.8207 26.4306 16.8007 26.3306 16.7107C25.4406 15.9307 25.0506 14.8007 25.2806 13.6807C25.5206 12.5607 26.3406 11.6407 27.4906 11.2207C27.5806 11.1907 27.6206 11.1807 27.6306 11.1807C27.6306 11.1807 27.6606 11.1907 27.7106 11.2407C28.2306 11.8007 28.8206 12.5307 28.8706 13.3107Z" fill="#E68635"/>
<path d="M41.0503 15.0204C41.0003 15.0504 40.9403 15.0704 40.8903 15.1004C40.8703 15.1104 40.8203 15.1304 40.7803 15.1504C40.7703 15.1404 40.7603 15.1304 40.7503 15.1204C39.9403 14.2404 39.5803 13.1604 39.7403 12.1504C39.8303 11.6304 40.0603 11.1304 40.4103 10.7004C40.7703 10.2604 41.2403 9.86035 41.7203 9.58035C41.7703 9.55035 41.8303 9.52035 41.8803 9.49035C42.0503 9.40035 42.1903 9.40035 42.3403 9.49035C42.9903 9.87035 43.3803 11.4104 43.3403 11.9504C43.2503 13.1504 42.3503 14.3604 41.0503 15.0204Z" fill="#D5464B"/>
<path d="M37.5704 9.09023C37.5004 9.25023 37.4804 9.25023 37.4004 9.25023C37.3404 9.25023 37.2604 9.23023 37.1804 9.21023C36.5604 9.05023 36.0004 8.80023 35.5004 8.47023C35.0304 8.16023 34.6304 7.75023 34.2304 7.17023C34.0204 6.86023 33.9204 6.40023 33.9304 5.75023C33.9404 5.21023 34.0904 4.66023 34.3604 4.12023C34.5604 3.73023 34.7204 3.74023 34.8304 3.75023C34.8904 3.75023 34.9604 3.77023 35.0404 3.79023C36.3804 4.19023 37.2804 4.82023 37.7204 5.67023C38.1904 6.59023 38.1404 7.77023 37.5704 9.09023Z" fill="#7BA333"/>
<path d="M50.3705 26.0709C49.6405 26.5909 48.9105 26.8609 48.1505 26.8809H48.0905C46.6505 26.8809 45.5905 25.8809 45.0705 24.9409L45.0605 24.9309C45.0705 24.9209 45.0805 24.9109 45.1005 24.9009C45.9805 24.2609 46.8805 23.9209 47.7105 23.9209C48.7905 23.9209 49.7405 24.4909 50.4805 25.5609C50.6405 25.8009 50.6205 25.8909 50.3705 26.0709Z" fill="#E68635"/>
<path d="M14.7298 19.9308C14.6298 19.9408 14.5298 19.9408 14.3998 19.9408C14.2998 19.9408 14.2098 19.9408 14.1298 19.9408C14.0598 19.9408 14.0098 19.9408 13.9798 19.9408C13.8098 19.9508 13.6798 19.9608 13.5498 19.9608C12.6498 19.9608 11.8798 19.6808 11.3198 19.1608C10.7398 18.6108 10.4398 17.8508 10.4698 17.0108C10.4798 16.7308 10.5098 16.7008 10.8198 16.6408C11.1098 16.5808 11.3898 16.5508 11.6698 16.5508C13.4898 16.5508 14.8898 17.9308 14.9298 19.7708C14.9398 19.8708 14.9398 19.9108 14.7298 19.9308Z" fill="#2180AC"/>
<path d="M24.0605 9.14082C24.0605 9.23082 24.0505 9.32082 24.0505 9.41082C24.0605 10.1908 23.7305 10.9308 23.1305 11.4808C22.5605 12.0008 21.8105 12.2908 21.0205 12.2908H20.9605C20.9005 12.2908 20.7105 12.2908 20.6805 12.2708C20.6805 12.2708 20.6705 12.2608 20.6605 12.2308C20.2905 11.2108 20.3705 10.1908 20.8905 9.43082C21.3805 8.71082 22.2305 8.25082 23.3505 8.10082C23.4205 8.09082 23.4905 8.09082 23.5505 8.09082C23.8005 8.09082 23.9905 8.13082 24.0405 8.63082C24.0705 8.78082 24.0705 8.95082 24.0605 9.14082Z" fill="#E68635"/>
<path d="M34.6202 23.2005C34.3502 23.2005 34.0802 23.1805 33.8102 23.1505C33.5602 23.1205 33.3102 23.0805 33.1202 22.9305C32.7202 22.6005 33.0602 21.3505 33.1502 20.9305C33.3102 20.1805 33.6002 19.4705 34.0502 18.8205C34.9402 17.5505 36.7402 16.7305 38.6302 16.7305C38.9902 16.7305 39.3402 16.7605 39.6802 16.8205C40.4302 16.9605 40.5902 17.0205 40.6102 17.4305C40.5702 19.5305 39.8402 21.5605 37.6502 22.5805C36.7302 23.0305 35.6702 23.2205 34.6202 23.2005Z" fill="#E68635"/>
<path d="M46.1804 21.1909C45.1404 23.5409 43.5003 24.7409 41.1703 24.8609C41.0403 24.8709 40.9204 24.8709 40.7904 24.8709C39.6904 24.8709 38.6904 24.6109 37.8604 24.1109C39.3404 23.6009 40.4904 22.6609 41.2904 21.3109C41.4004 21.1209 41.4904 21.0509 41.8104 20.9909C42.7004 20.8309 43.7204 20.6009 44.5204 19.9209C45.0004 20.1409 45.4704 20.4009 45.9904 20.6909C46.2904 20.8709 46.3004 20.9109 46.1804 21.1909Z" fill="#2180AC"/>
<path d="M41.9906 19.5602C42.1706 18.6702 42.3406 17.8302 42.1306 16.8902C42.1006 16.7802 42.0706 16.6602 41.9806 16.5402C41.8906 16.4202 41.7806 16.3502 41.7006 16.3002L41.6806 16.2902C41.6706 16.2802 41.6506 16.2702 41.6406 16.2602C41.6606 16.2302 41.7206 16.1502 41.8406 16.0602C42.6906 15.4302 43.7506 15.2702 44.7606 15.1602H44.7906C44.7906 15.1602 44.8006 15.1602 44.8106 15.1802C45.1006 15.5002 45.0206 16.7702 44.8906 17.3302C44.7606 17.8802 44.5206 18.3302 44.1906 18.6702C44.1106 18.7502 44.0206 18.8302 43.9206 18.9102C43.4306 19.2802 42.8006 19.5002 42.3706 19.6302C42.2606 19.6602 42.0806 19.7202 41.9506 19.7402C41.9506 19.7502 41.9906 19.5602 41.9906 19.5602Z" fill="#D5464B"/>
<path d="M28.0598 7.67047C28.0498 7.70047 28.0498 7.74047 28.0398 7.78047C28.0198 7.91047 27.9998 8.07047 27.9598 8.21047C27.9298 8.30047 27.9098 8.39047 27.8798 8.48047C27.7898 8.81047 27.6598 9.27047 27.4498 9.31047C27.4098 9.32047 27.3698 9.32047 27.3398 9.32047C26.9298 9.32047 26.4198 8.91047 26.0698 8.60047C25.1298 7.76047 24.9798 6.60047 25.6798 5.50047C25.8498 5.23047 25.9298 5.23047 25.9698 5.23047C26.0098 5.23047 26.1098 5.24047 26.2998 5.33047C27.5298 5.88047 28.0498 6.58047 28.0598 7.67047Z" fill="#CD3758"/>
<path d="M41.1399 5.7209C41.2599 6.4509 40.9899 7.2009 40.4199 7.7109C40.3699 7.7609 40.3399 7.7709 40.3399 7.7709C40.3399 7.7709 40.3099 7.7709 40.2099 7.7209C39.6799 7.4409 39.2899 7.0209 39.0599 6.4609C38.8299 5.6709 39.0599 4.9609 39.8099 4.1809C39.8099 4.1809 39.8099 4.1809 39.8199 4.1709C39.8399 4.1709 39.8599 4.1809 39.8899 4.2009C40.5599 4.4509 41.0199 5.0209 41.1399 5.7209Z" fill="#E68635"/>
<path d="M31.2598 4.08042C31.2898 4.70042 30.8798 5.38042 30.1298 5.92042C30.1198 5.93042 30.1198 5.93042 30.1098 5.93042C30.0698 5.91042 29.9998 5.86042 29.9598 5.83042C29.3998 5.40042 29.0798 4.82042 29.0598 4.18042C29.0498 3.55042 29.3298 2.94042 29.8698 2.47042C30.0198 2.34042 30.0998 2.31042 30.1398 2.31042C30.2298 2.30042 30.3498 2.38042 30.4098 2.44042C30.8498 2.81042 31.1598 3.42042 31.2598 4.08042Z" fill="#2180AC"/>
<path d="M19.4198 14.2203C19.4098 14.2803 19.4098 14.3603 19.3998 14.4703C19.3798 14.8403 19.3498 15.1503 19.1698 15.2303C19.1098 15.2503 19.0498 15.2703 18.9798 15.2703C18.6298 15.2703 18.1598 14.9603 17.8498 14.7303C16.9998 14.1003 16.7598 13.0003 17.2698 12.1103C17.3198 12.0303 17.3298 12.0303 17.3798 12.0303C17.4098 12.0303 17.4498 12.0303 17.4798 12.0403C18.6498 12.2103 19.4098 13.0703 19.4198 14.2203Z" fill="#2180AC"/>
<path d="M39.9601 28.2107C39.9301 28.2407 39.7901 28.3207 39.1701 28.2107C39.0001 28.1807 38.8401 28.1007 38.6601 28.0207L38.6201 28.0007C37.9801 27.6807 37.6401 27.0607 37.7301 26.3807C37.7301 26.3507 37.7401 26.3407 37.7401 26.3407C37.7401 26.3407 37.7601 26.3307 37.8301 26.3207C38.3201 26.2507 38.7301 26.3007 39.0801 26.4707C39.4901 26.6707 39.7701 27.0307 39.9101 27.5507C40.0601 28.0607 39.9801 28.1907 39.9601 28.2107Z" fill="#7BA333"/>
<path d="M17.8698 25.9101C17.8598 25.9501 17.8798 26.1101 18.3598 26.5101C18.4898 26.6201 18.6598 26.7001 18.8298 26.7801L18.8698 26.8001C19.5298 27.0901 20.2498 26.9701 20.7398 26.4801C20.7598 26.4601 20.7698 26.4501 20.7698 26.4501C20.7698 26.4501 20.7598 26.4301 20.7298 26.3801C20.4898 25.9701 20.1798 25.6801 19.8298 25.5201C19.4098 25.3401 18.9398 25.3401 18.4298 25.5501C17.9298 25.7401 17.8798 25.8801 17.8698 25.9101Z" fill="#7BA333"/>
<path d="M48.1397 14.1007C48.1597 14.9507 47.5697 15.4107 46.8897 15.9407L46.7597 16.0407C46.7297 16.0307 46.6797 16.0007 46.6097 15.9207C45.5897 14.8207 45.6897 13.6807 46.8797 12.7207C47.1097 12.5307 47.2497 12.5107 47.2997 12.5107C47.4297 12.5107 47.5697 12.6607 47.6797 12.7807C47.9997 13.1707 48.1497 13.6207 48.1397 14.1007Z" fill="#7BA333"/>
<path d="M17.8999 10.56C17.8799 10.55 17.8599 10.53 17.8299 10.5C17.3099 10.02 17.0599 9.34996 17.1499 8.67996C17.2399 7.99996 17.6699 7.39996 18.3299 7.02996C18.4499 6.95996 18.4899 6.95996 18.4899 6.95996C18.4899 6.95996 18.5199 6.96996 18.5999 7.02996C19.0499 7.42996 19.3199 8.05996 19.2999 8.67996C19.2799 9.47996 18.7699 9.92996 18.1599 10.37C18.0699 10.43 17.9799 10.49 17.8999 10.56Z" fill="#D5464B"/>
<path d="M49.5598 18.1001C49.5598 18.1001 49.5498 18.1401 49.5198 18.2201C49.1498 19.0501 48.2898 19.6001 47.3098 19.6001C46.7698 19.6001 46.2598 19.4401 45.8198 19.1301C45.7098 19.0501 45.7098 19.0501 45.7798 18.9001C46.1798 18.0701 46.9798 17.5901 47.9998 17.5901H48.0498C48.1298 17.5901 48.1598 17.5801 48.1898 17.5801C48.5598 17.5801 48.9098 17.7601 49.2698 17.9601C49.3498 18.0001 49.4298 18.0501 49.5098 18.0901C49.5298 18.0901 49.5498 18.1001 49.5598 18.1001Z" fill="#004D36"/>
<path d="M14.04 11.2807C14.01 11.3007 13.99 11.3107 13.98 11.3207C13.96 11.3107 13.9 11.2807 13.8 11.1807C13.3 10.6807 13.09 10.0007 13.23 9.3207C13.37 8.6307 13.85 8.0607 14.55 7.7407C14.57 7.7307 14.58 7.7307 14.59 7.7207C14.6 7.7307 14.62 7.7507 14.64 7.7707C15.03 8.2107 15.39 8.7107 15.33 9.3307V9.3607V9.3907C15.38 10.2107 14.83 10.6907 14.04 11.2807Z" fill="#004D36"/>
<path d="M42.2706 8.44046C42.2306 8.44046 42.2106 8.44046 42.2006 8.43046C42.1906 8.41046 42.1606 8.35046 42.1406 8.20046C42.0506 7.49046 42.2906 6.83046 42.8106 6.38046C43.3406 5.92046 44.0706 5.76046 44.8106 5.93046C44.8306 5.93046 44.8406 5.94046 44.8506 5.94046C44.8506 5.96046 44.8606 5.98046 44.8606 6.01046C44.9006 6.60046 44.8806 7.21046 44.4606 7.67046L44.4506 7.70046L44.4306 7.73046C43.9806 8.41046 43.2506 8.45046 42.2706 8.44046Z" fill="#004D36"/>
<path d="M15.1304 15.7407C15.1204 15.7407 15.1004 15.7407 15.0904 15.7407C13.6004 15.5707 12.6904 14.7207 12.8104 13.6407C12.8104 12.7207 13.0004 12.7207 13.1104 12.7207C13.2804 12.7207 13.5604 12.7807 13.9204 12.9107C14.9804 13.2807 15.6304 14.6207 15.2404 15.6107C15.2004 15.7207 15.1704 15.7307 15.1704 15.7307C15.1604 15.7407 15.1404 15.7407 15.1304 15.7407Z" fill="#D5464B"/>
<path d="M46.5998 10.87C46.0198 11.19 45.3098 11.21 44.6498 10.93C44.5398 10.89 44.5098 10.85 44.5098 10.85C44.5098 10.85 44.5098 10.82 44.5198 10.75C44.6598 10.05 44.8198 9.54 45.1998 9.29C45.8798 8.72 46.5298 8.65 47.5598 9.03C47.6398 9.06 47.6698 9.09 47.6698 9.09C47.6698 9.09 47.6898 9.14 47.6598 9.3C47.5698 9.99 47.1798 10.56 46.5998 10.87Z" fill="#E68635"/>
<path d="M20.9904 18.0908L20.9704 18.0508C20.6004 17.3908 20.3704 16.8208 20.4504 16.1708C20.5404 15.0508 21.1904 14.2308 22.6204 13.4308C22.7704 13.3508 22.8304 13.3408 22.8604 13.3408C22.9004 13.3408 22.9704 13.3908 23.0404 13.4808C23.8604 14.3808 24.1704 15.1808 24.0704 16.0708C24.0704 16.0808 24.0704 16.0908 24.0704 16.1108C22.7304 16.3208 22.0404 17.1808 21.3804 18.0108C21.3004 18.1108 21.2104 18.2208 21.1304 18.3208C21.1104 18.3008 20.9904 18.0908 20.9904 18.0908Z" fill="#D5464B"/>
<path d="M24.6599 3.93058C25.0899 4.67058 24.8099 5.33058 24.4899 6.09058C24.4899 6.09058 24.4299 6.23058 24.4299 6.24058C24.3999 6.24058 24.3399 6.23058 24.2399 6.19058C22.8399 5.64058 22.3599 4.59058 22.9099 3.24058C23.0199 2.98058 23.1199 2.90058 23.1699 2.87058C23.2799 2.82058 23.4799 2.89058 23.6199 2.95058C24.0799 3.16058 24.4299 3.49058 24.6599 3.93058Z" fill="#7BA333"/>
<path d="M14.76 26.8101C15.62 26.5201 16.24 26.8101 16.97 27.1601L17.11 27.2301C17.11 27.2501 17.09 27.3001 17.03 27.3801C16.19 28.5101 15.01 28.8101 13.71 28.2201C13.46 28.1001 13.39 28.0101 13.38 27.9701C13.35 27.8701 13.46 27.7101 13.55 27.6001C13.86 27.2301 14.27 26.9601 14.76 26.8101Z" fill="#004D36"/>
<path d="M47.9699 21.1306C48.8199 20.1106 49.8899 20.3706 50.5899 20.9606H50.5999C50.6499 21.0106 50.6799 21.0406 50.6199 21.1606C50.3599 21.6806 49.8999 22.0406 49.3799 22.1506C48.8299 22.2606 48.2699 22.1006 47.7999 21.7006C47.7599 21.6706 47.7199 21.6306 47.6799 21.5906L47.6699 21.5806C47.6699 21.5706 47.6699 21.5606 47.6899 21.5206C47.7199 21.4206 47.7899 21.3506 47.8599 21.2606C47.8999 21.2206 47.9399 21.1806 47.9699 21.1306Z" fill="#CD3758"/>
<path d="M21.3904 28.3209C21.3604 28.3209 21.3104 28.3209 21.2604 28.3209C21.2104 28.3109 21.0604 28.3409 21.0204 28.2809C20.9904 28.2209 21.0304 28.1209 21.0604 28.0409C21.2204 27.6209 21.4604 27.2409 21.8504 27.0009C22.1904 26.7909 22.5104 26.8009 22.8804 26.8109C22.9304 26.8109 22.9504 26.8109 22.9804 26.8509C23.0104 26.8809 23.0004 26.9209 22.9904 26.9709C22.9004 27.3509 22.7004 27.7109 22.4004 27.9709C22.0904 28.2209 21.7804 28.3009 21.3904 28.3209Z" fill="#CD3758"/>
<path d="M28.9099 21.5406C28.8699 21.5506 28.8199 21.5606 28.7499 21.7906C28.4899 22.6806 28.6799 23.5606 29.2599 24.1906C29.8399 24.8206 30.7499 25.1406 31.7499 25.0506C31.7799 25.0506 31.8099 25.0406 31.8299 25.0406C31.8899 25.0306 31.9299 25.0106 31.9699 24.8206C32.0499 24.3906 32.1299 23.8306 31.9599 23.3406L31.9499 23.3106C31.7099 22.1006 30.2499 21.4606 28.9799 21.5306C28.9499 21.5406 28.9199 21.5406 28.9099 21.5406Z" fill="#CD3758"/>
<path d="M38.3493 30.2803C37.5793 30.3503 36.9493 31.1103 37.0293 31.8703C37.1093 32.6003 37.8393 33.2103 38.5793 33.1603C39.3193 33.1103 39.9793 32.3403 39.9293 31.6203C39.8693 30.8503 39.1193 30.2203 38.3493 30.2803Z" fill="#004D36"/>
<path d="M35.5798 31.7506C35.6298 31.5906 35.8598 31.6206 35.8798 31.7806C35.9298 32.3506 36.1298 32.9106 36.4398 33.3506C36.9498 34.0706 37.8698 34.4906 38.7398 34.2306C39.4898 34.0106 40.1098 33.5206 40.7698 33.1106C40.9098 33.0206 41.0698 33.2006 40.9698 33.3306C40.1098 34.4506 38.5898 36.5506 38.5898 38.4006C38.5998 40.2906 39.4398 42.1506 40.6798 43.2706C40.8098 43.3906 40.6798 43.5906 40.5198 43.5206C39.2298 42.9606 38.0798 41.9006 37.2798 40.5206C37.2098 40.3906 37.0098 40.4406 36.9998 40.5806C36.9098 41.6806 36.9698 42.8206 37.1698 43.9206C37.1998 44.0906 36.9698 44.1706 36.8898 44.0206C34.9098 40.4606 34.3998 35.7406 35.5798 31.7506Z" fill="#004D36"/>
<path d="M24.1502 32.5302C24.6902 32.5802 25.1202 33.1102 25.0702 33.6402C25.0202 34.1502 24.5002 34.5702 23.9902 34.5402C23.4802 34.5002 23.0102 33.9702 23.0502 33.4602C23.0902 32.9202 23.6102 32.4802 24.1502 32.5302Z" fill="#004D36"/>
<path d="M26.0702 33.5507C26.0402 33.4407 25.8702 33.4607 25.8602 33.5707C25.8202 33.9707 25.6902 34.3607 25.4702 34.6607C25.1102 35.1607 24.4702 35.4507 23.8702 35.2707C23.3502 35.1207 22.9202 34.7707 22.4502 34.4907C22.3502 34.4307 22.2402 34.5507 22.3102 34.6407C22.9102 35.4207 23.9702 36.8807 23.9602 38.1707C23.9502 39.4807 23.3702 40.7807 22.5102 41.5707C22.4202 41.6507 22.5102 41.8007 22.6202 41.7507C23.5202 41.3607 24.3202 40.6207 24.8802 39.6607C24.9302 39.5707 25.0702 39.6007 25.0802 39.7007C25.1402 40.4707 25.1002 41.2607 24.9602 42.0307C24.9402 42.1507 25.1002 42.2007 25.1602 42.1007C26.5402 39.6107 26.9002 36.3207 26.0702 33.5507Z" fill="#004D36"/>
<path d="M35.6705 26.3301C35.8305 26.0601 35.1405 26.3901 35.0805 26.4601C34.2205 27.0601 31.9805 29.1002 30.7105 32.5402C29.4405 29.0902 27.3805 27.0601 26.5205 26.4601C26.4505 26.3901 25.7705 26.0601 25.9305 26.3301C27.1105 28.3701 27.7105 30.4401 28.2105 32.7701C28.8705 35.8101 28.6005 38.8901 27.6505 41.8601C27.3105 42.9101 26.7205 43.8601 26.2305 44.8401C26.1905 44.9201 26.0805 45.1201 25.9905 45.2901C25.9105 45.4401 26.0105 45.6201 26.1805 45.6201C27.0405 45.6301 29.8305 45.6601 30.7905 45.6601C30.8005 45.6601 30.8005 45.6601 30.8105 45.6601C30.8205 45.6601 30.8205 45.6601 30.8305 45.6601C31.7905 45.6601 34.5805 45.6301 35.4405 45.6201C35.6005 45.6201 35.7105 45.4401 35.6305 45.2901C35.5405 45.1201 35.4305 44.9301 35.3905 44.8401C34.9005 43.8601 34.3005 42.9101 33.9705 41.8601C33.0205 38.8901 32.7505 35.8101 33.4105 32.7701C33.8905 30.4401 34.4905 28.3701 35.6705 26.3301Z" fill="#004D36"/>
</svg>
