<svg width="80" height="86" viewBox="0 0 80 86" fill="none" xmlns="http://www.w3.org/2000/svg">
<path d="M27.9012 43.0678L27.1519 43.541C26.6196 43.8565 25.8309 44.3494 25.5548 44.31C25.2788 44.2706 24.707 43.4621 24.4112 43.0284C22.7155 40.6623 21.8677 37.961 22.893 35.1808C23.7803 32.7753 25.614 31.7106 27.7632 30.3895C28.0589 30.2121 28.2955 30.1529 28.5124 30.1923C28.7293 30.2318 28.9856 30.4092 29.2617 30.6853C31.2334 32.795 32.1404 35.24 31.8249 37.5666C31.4897 39.7553 30.149 41.6679 27.9012 43.0678Z" fill="#CD3758"/>
<path d="M20.0926 42.6771C16.09 41.4743 12.2451 38.2209 12.2451 33.9817C12.2451 31.3987 12.7775 29.3875 13.9211 27.6327C14.1183 27.3369 14.1577 27.3369 14.2957 27.3369C14.3746 27.3369 14.4535 27.3369 14.5718 27.3566C15.5182 27.5144 16.4252 27.7707 17.3716 28.0467C17.5491 28.1059 17.7068 28.1453 17.8843 28.1848C17.9434 28.4411 18.0026 28.7171 18.0617 28.9735C18.3378 30.2945 18.6336 31.6747 19.6391 32.8775C20.2109 33.5479 20.1124 34.1394 19.7772 34.9873C18.6927 37.5702 18.811 40.1729 20.0926 42.6771Z" fill="#E68635"/>
<path d="M68.7948 56.1558C64.6345 56.1558 61.46 53.4348 60.7107 49.235C60.553 48.328 60.7896 48.0125 61.7952 47.8548C62.8205 47.697 63.5303 47.6182 64.1021 47.6182C64.1612 47.6182 64.2401 47.6182 64.2993 47.6182C64.4767 47.6182 64.595 47.6182 64.7133 47.6182C71.1412 47.6182 72.482 52.863 72.7383 55.1305C72.758 55.3474 72.7777 55.4263 72.4031 55.5446C71.1806 55.9389 69.9582 56.1558 68.7948 56.1558Z" fill="#D5464B"/>
<path d="M13.27 43.3957C12.3236 44.1055 10.5096 44.6181 9.12935 44.7956C8.735 44.8548 8.32093 44.8745 7.90687 44.8942H7.84772C5.93513 44.8942 4.00282 44.2238 2.52402 43.0802C1.479 42.2521 -0.0195248 40.4775 0.000192596 39.5705C0.000192596 39.4127 0.0593446 39.3339 0.157932 39.2747C2.07052 37.9537 4.2 37.2241 6.11259 37.2241C6.60552 37.2241 7.09846 37.2636 7.57167 37.3621C10.5687 37.9931 12.5405 40.4972 13.4475 41.9366C13.5855 42.1535 13.7038 42.3704 13.7432 42.5478C13.8024 42.8239 13.6052 43.1591 13.27 43.3957Z" fill="#CD3758"/>
<path d="M43.6747 21.8127C43.517 21.8127 43.2606 21.7536 42.8269 21.517C40.2242 20.0973 38.6271 18.2045 38.213 16.0553C37.7792 13.8864 38.5876 11.5794 40.5002 9.39079C40.6579 9.21333 40.7565 9.15418 40.796 9.11475C40.8946 9.13446 41.21 9.2922 41.3086 9.33164L41.4861 9.41051C42.5114 9.88372 43.4775 10.5541 44.3254 11.3428C45.3704 12.3484 46.0211 13.2554 46.2774 14.123C46.7901 15.7595 46.5534 17.6524 45.6464 19.4072C45.3507 19.9987 44.9761 20.5903 44.5028 21.2015C44.0691 21.8128 43.793 21.8127 43.6747 21.8127Z" fill="#D5464B"/>
<path d="M55.3062 22.5561C54.4189 24.5278 52.3486 26.0658 49.6079 26.7756C49.529 26.7953 49.4895 26.7953 49.4501 26.7953C49.3712 26.7953 49.2727 26.6967 49.1741 26.4996C48.4248 25.1391 48.0305 23.8377 48.0107 22.7335C48.2079 19.3224 50.1402 17.331 54.2612 16.3254C54.3203 16.3057 54.34 16.3057 54.34 16.3057C54.34 16.3057 54.3992 16.3845 54.5569 16.6211C55.8583 18.6915 56.1146 20.7421 55.3062 22.5561Z" fill="#CD3758"/>
<path d="M20.7033 53.537C20.7821 58.6635 16.5823 60.5564 12.5994 60.6156H12.5797C12.2839 60.6156 12.067 60.5761 11.929 60.0832C11.3178 57.8945 11.791 55.7059 13.1909 54.0694C14.65 52.3737 16.957 51.4272 19.6582 51.4272C19.8949 51.4272 20.1117 51.4272 20.3484 51.447C20.3681 51.447 20.3878 51.447 20.4075 51.447C20.4272 51.4667 20.4667 51.5258 20.5258 51.6639C20.7033 52.0188 20.6835 52.4328 20.6835 52.8469C20.6835 53.1229 20.6835 53.3398 20.7033 53.537Z" fill="#CD3758"/>
<path d="M37.5819 35.4337C37.4833 35.4337 37.3452 35.4337 37.0495 34.9211C35.8862 32.9296 35.7876 30.7015 36.7932 28.8087C37.7987 26.9158 39.7902 25.5947 42.2549 25.2004C42.3337 25.1807 42.3929 25.1807 42.4521 25.1807C42.5901 25.1807 42.7084 25.1807 42.9253 25.6342C43.3985 26.62 43.9111 27.9214 43.8126 29.203V29.2622C43.99 32.3184 40.8747 34.783 37.7593 35.3943C37.6804 35.4337 37.6213 35.4337 37.5819 35.4337Z" fill="#D5464B"/>
<path d="M37.05 21.693C37.05 21.7521 37.05 21.7916 37.05 21.8507C37.0895 24.69 35.1572 27.5293 32.515 28.5743C32.4164 28.6138 32.3573 28.6138 32.3376 28.6138C32.3178 28.6138 32.239 28.5743 32.0418 28.3969C30.287 26.8589 29.518 24.6309 29.9715 22.4225C30.4447 20.2142 32.0615 18.4002 34.329 17.572C34.5065 17.5129 34.5853 17.4932 34.6051 17.4932C34.6051 17.4932 34.6642 17.5129 34.7628 17.6115C35.7881 18.7156 36.9514 20.155 37.05 21.693Z" fill="#E68635"/>
<path d="M61.0655 25.0612C60.9669 25.1204 60.8486 25.1598 60.75 25.219C60.7106 25.2387 60.612 25.2781 60.5331 25.3176C60.5134 25.2978 60.4937 25.2781 60.4739 25.2584C58.8768 23.5233 58.167 21.3938 58.4825 19.4023C58.6599 18.377 59.1134 17.3912 59.8036 16.5433C60.5134 15.6757 61.4401 14.8871 62.3865 14.335C62.4851 14.2758 62.6034 14.2167 62.702 14.1575C63.0372 13.98 63.3133 13.98 63.609 14.1575C64.8906 14.9068 65.6596 17.9432 65.5807 19.008C65.4033 21.3741 63.6287 23.7599 61.0655 25.0612Z" fill="#D5464B"/>
<path d="M54.2039 13.3722C54.0658 13.6877 54.0264 13.6877 53.8687 13.6877C53.7504 13.6877 53.5926 13.6483 53.4349 13.6088C52.2124 13.2934 51.1082 12.8004 50.1224 12.1498C49.1956 11.5385 48.407 10.7301 47.6183 9.5865C47.2042 8.97526 47.007 8.06826 47.0267 6.78663C47.0465 5.72189 47.3422 4.63743 47.8746 3.57269C48.2689 2.80371 48.5844 2.82343 48.8013 2.84315C48.9196 2.84315 49.0576 2.88258 49.2154 2.92202C51.8575 3.71071 53.6321 4.95291 54.4996 6.62889C55.4263 8.44289 55.3278 10.7695 54.2039 13.3722Z" fill="#7BA333"/>
<path d="M79.4426 46.854C78.0032 47.8793 76.5639 48.4117 75.0653 48.4511H74.947C72.1077 48.4511 70.0177 46.4794 68.9924 44.6259L68.9727 44.6062C68.9924 44.5865 69.0121 44.5668 69.0515 44.5471C70.7867 43.2851 72.5612 42.6147 74.1978 42.6147C76.3272 42.6147 78.2004 43.7386 79.6595 45.8484C79.975 46.3216 79.9355 46.4991 79.4426 46.854Z" fill="#E68635"/>
<path d="M9.1683 34.748C8.97113 34.7677 8.77395 34.7677 8.51762 34.7677C8.32045 34.7677 8.143 34.7677 7.98526 34.7677C7.84723 34.7677 7.74865 34.7677 7.68949 34.7677C7.3543 34.7874 7.09797 34.8071 6.84165 34.8071C5.06708 34.8071 3.54884 34.255 2.44467 33.2297C1.30106 32.1453 0.709539 30.6468 0.768691 28.9905C0.788408 28.4384 0.847559 28.3793 1.4588 28.261C2.0306 28.1426 2.58269 28.0835 3.13478 28.0835C6.72334 28.0835 9.48378 30.8045 9.56265 34.4325C9.58237 34.6297 9.58236 34.7085 9.1683 34.748Z" fill="#2180AC"/>
<path d="M27.5663 13.4697C27.5663 13.6472 27.5466 13.8247 27.5466 14.0021C27.5663 15.5401 26.9156 16.9992 25.7326 18.0836C24.6087 19.1089 23.1299 19.6807 21.5722 19.6807H21.4539C21.3356 19.6807 20.961 19.6807 20.9018 19.6413C20.9018 19.6413 20.8821 19.6216 20.8624 19.5624C20.1329 17.5512 20.2906 15.5401 21.3159 14.0415C22.282 12.6219 23.958 11.7149 26.1664 11.4191C26.3044 11.3994 26.4424 11.3994 26.5607 11.3994C27.0537 11.3994 27.4283 11.4783 27.5269 12.4642C27.586 12.7599 27.586 13.0951 27.5663 13.4697Z" fill="#E68635"/>
<path d="M48.387 41.1878C47.8546 41.1878 47.3222 41.1484 46.7899 41.0892C46.2969 41.0301 45.804 40.9512 45.4294 40.6554C44.6407 40.0048 45.3111 37.5401 45.4885 36.712C45.804 35.2332 46.3758 33.8332 47.2631 32.5516C49.0179 30.0475 52.5671 28.4307 56.2936 28.4307C57.0035 28.4307 57.6936 28.4898 58.364 28.6081C59.8428 28.8842 60.1583 29.0025 60.1977 29.8109C60.1188 33.9515 58.6795 37.9542 54.3613 39.9653C52.5473 40.8526 50.4573 41.2273 48.387 41.1878Z" fill="#E68635"/>
<path d="M71.1803 37.2297C69.1297 41.8633 65.896 44.2294 61.3018 44.466C61.0455 44.4857 60.8089 44.4857 60.5526 44.4857C58.3837 44.4857 56.4119 43.973 54.7754 42.9872C57.6936 41.9816 59.9611 40.1282 61.5385 37.4663C61.7553 37.0917 61.9328 36.9537 62.5638 36.8353C64.3186 36.5199 66.3298 36.0664 67.9072 34.7256C68.8536 35.1594 69.7803 35.672 70.8056 36.2438C71.3972 36.5987 71.4169 36.6776 71.1803 37.2297Z" fill="#2180AC"/>
<path d="M62.9196 34.0126C63.2745 32.2577 63.6097 30.6015 63.1956 28.748C63.1365 28.5311 63.0773 28.2945 62.8999 28.0579C62.7224 27.8213 62.5055 27.6833 62.3478 27.5847L62.3084 27.565C62.2886 27.5453 62.2492 27.5255 62.2295 27.5058C62.2689 27.4467 62.3872 27.2889 62.6238 27.1115C64.2998 25.8693 66.3899 25.5538 68.3813 25.3369H68.4405C68.4405 25.3369 68.4602 25.3369 68.4799 25.3763C69.0517 26.0073 68.894 28.5114 68.6376 29.6156C68.3813 30.7 67.9081 31.5873 67.2574 32.2577C67.0997 32.4155 66.9222 32.5732 66.7251 32.7309C65.7589 33.4605 64.5167 33.8943 63.6689 34.1506C63.452 34.2097 63.0971 34.328 62.8407 34.3675C62.8407 34.3872 62.9196 34.0126 62.9196 34.0126Z" fill="#D5464B"/>
<path d="M35.4511 10.5679C35.4314 10.627 35.4314 10.7059 35.4117 10.7848C35.3723 11.0411 35.3328 11.3566 35.254 11.6326C35.1948 11.8101 35.1554 11.9875 35.0962 12.165C34.9188 12.8157 34.6624 13.7227 34.2484 13.8015C34.1695 13.8213 34.0906 13.8212 34.0315 13.8212C33.2231 13.8212 32.2175 13.0128 31.5274 12.4016C29.6739 10.7453 29.3782 8.45812 30.7584 6.28921C31.0936 5.75684 31.2513 5.75684 31.3302 5.75684C31.4091 5.75684 31.6062 5.77655 31.9809 5.95401C34.4061 7.03847 35.4314 8.41868 35.4511 10.5679Z" fill="#CD3758"/>
<path d="M61.2421 6.72465C61.4787 8.16402 60.9464 9.64283 59.8225 10.6484C59.7239 10.747 59.6647 10.7667 59.6647 10.7667C59.6647 10.7667 59.6056 10.7667 59.4084 10.6681C58.3634 10.116 57.5944 9.28791 57.1409 8.18374C56.6874 6.62607 57.1409 5.22613 58.6197 3.68817C58.6197 3.68817 58.6197 3.68817 58.6394 3.66846C58.6789 3.66846 58.7183 3.68817 58.7775 3.72761C60.0985 4.22054 61.0055 5.34443 61.2421 6.72465Z" fill="#E68635"/>
<path d="M41.7612 3.49166C41.8203 4.71414 41.0119 6.05492 39.5331 7.11966C39.5134 7.13938 39.5134 7.13938 39.4937 7.13938C39.4148 7.09994 39.2768 7.00136 39.1979 6.9422C38.0938 6.09436 37.4628 4.95075 37.4234 3.68883C37.4036 2.44664 37.9557 1.24388 39.0205 0.317161C39.3162 0.0608347 39.474 0.00168234 39.5528 0.00168234C39.7303 -0.0180351 39.9669 0.139704 40.0852 0.258009C40.9528 0.987552 41.564 2.19031 41.7612 3.49166Z" fill="#2180AC"/>
<path d="M18.4149 23.4812C18.3951 23.5995 18.3951 23.7572 18.3754 23.9741C18.336 24.7037 18.2768 25.3149 17.9219 25.4727C17.8036 25.5121 17.6853 25.5515 17.5473 25.5515C16.8572 25.5515 15.9305 24.9403 15.3192 24.4868C13.6432 23.2446 13.17 21.0757 14.1756 19.3208C14.2742 19.1631 14.2939 19.1631 14.3925 19.1631C14.4517 19.1631 14.5305 19.1631 14.5897 19.1828C16.8966 19.518 18.3951 21.2137 18.4149 23.4812Z" fill="#2180AC"/>
<path d="M58.9163 51.0736C58.8572 51.1327 58.5811 51.2905 57.3587 51.0736C57.0235 51.0144 56.708 50.8567 56.3531 50.699L56.2742 50.6595C55.0123 50.0286 54.3419 48.8061 54.5194 47.4653C54.5194 47.4062 54.5391 47.3864 54.5391 47.3864C54.5391 47.3864 54.5785 47.3667 54.7165 47.347C55.6827 47.209 56.4911 47.3076 57.1812 47.6428C57.9896 48.0371 58.5417 48.7469 58.8178 49.7722C59.1135 50.7778 58.9558 51.0342 58.9163 51.0736Z" fill="#7BA333"/>
<path d="M15.3597 46.5336C15.34 46.6124 15.3795 46.9279 16.3259 47.7166C16.5822 47.9335 16.9174 48.0912 17.2526 48.249L17.3315 48.2884C18.6328 48.8602 20.0525 48.6236 21.0186 47.6575C21.0581 47.618 21.0778 47.5983 21.0778 47.5983C21.0778 47.5983 21.0581 47.5589 20.9989 47.4603C20.5257 46.6519 19.9145 46.0801 19.2243 45.7646C18.3962 45.4097 17.4695 45.4097 16.4639 45.8237C15.478 46.1984 15.3795 46.4744 15.3597 46.5336Z" fill="#7BA333"/>
<path d="M75.0436 23.2532C75.083 24.9292 73.9197 25.8362 72.5789 26.8812L72.3226 27.0784C72.2634 27.0587 72.1648 26.9995 72.0268 26.8418C70.0156 24.6729 70.2128 22.4251 72.5592 20.5322C73.0127 20.1576 73.2887 20.1182 73.3873 20.1182C73.6436 20.1182 73.9197 20.4139 74.1366 20.6505C74.7675 21.4195 75.0633 22.3068 75.0436 23.2532Z" fill="#7BA333"/>
<path d="M15.4187 16.2648C15.3792 16.2451 15.3398 16.2056 15.2806 16.1465C14.2553 15.2 13.7624 13.879 13.9399 12.5579C14.1173 11.2171 14.9652 10.0341 16.2665 9.30453C16.5031 9.1665 16.582 9.1665 16.582 9.1665C16.582 9.1665 16.6411 9.18622 16.7989 9.30453C17.6862 10.0932 18.2185 11.3354 18.1791 12.5579C18.1397 14.1353 17.1341 15.0226 15.9313 15.8901C15.7539 16.0084 15.5764 16.1267 15.4187 16.2648Z" fill="#D5464B"/>
<path d="M77.8444 31.1366C77.8444 31.1366 77.8247 31.2155 77.7655 31.3732C77.036 33.0098 75.3403 34.0942 73.408 34.0942C72.3432 34.0942 71.3376 33.7788 70.4701 33.1675C70.2532 33.0098 70.2532 33.0098 70.3912 32.714C71.1799 31.0775 72.7573 30.131 74.7685 30.131H74.8671C75.0248 30.131 75.084 30.1113 75.1431 30.1113C75.8726 30.1113 76.5628 30.4662 77.2726 30.8606C77.4303 30.9395 77.5881 31.038 77.7458 31.1169C77.7852 31.1169 77.8247 31.1366 77.8444 31.1366Z" fill="#004D36"/>
<path d="M7.80785 17.6859C7.74869 17.7253 7.70926 17.745 7.68954 17.7648C7.65011 17.745 7.5318 17.6859 7.33463 17.4887C6.34876 16.5029 5.93469 15.1621 6.21074 13.8213C6.48678 12.4608 7.43322 11.3369 8.81343 10.7059C8.85287 10.6862 8.87259 10.6862 8.8923 10.6665C8.91202 10.6862 8.95146 10.7257 8.99089 10.7651C9.75987 11.6327 10.4697 12.6185 10.3514 13.841V13.9002V13.9593C10.45 15.5761 9.36552 16.5226 7.80785 17.6859Z" fill="#004D36"/>
<path d="M63.4716 12.0864C63.3927 12.0864 63.3533 12.0864 63.3336 12.0667C63.3139 12.0273 63.2547 11.909 63.2153 11.6132C63.0378 10.2133 63.511 8.91194 64.5363 8.02466C65.5814 7.11766 67.0207 6.80218 68.4798 7.13737C68.5192 7.13737 68.539 7.15709 68.5587 7.15709C68.5587 7.19652 68.5784 7.23596 68.5784 7.29511C68.6573 8.45844 68.6178 9.6612 67.7897 10.5682L67.77 10.6274L67.7305 10.6865C66.8433 12.0273 65.4039 12.1062 63.4716 12.0864Z" fill="#004D36"/>
<path d="M9.95759 26.4791C9.93788 26.4791 9.89844 26.4791 9.87872 26.4791C6.94083 26.1439 5.14655 24.4679 5.38316 22.3384C5.38316 20.5244 5.75779 20.5244 5.97468 20.5244C6.30987 20.5244 6.86196 20.6427 7.57179 20.899C9.66183 21.6286 10.9435 24.2707 10.1745 26.2227C10.0956 26.4396 10.0365 26.4593 10.0365 26.4593C10.0167 26.4791 9.97731 26.4791 9.95759 26.4791Z" fill="#D5464B"/>
<path d="M72.0077 16.882C70.864 17.5129 69.4641 17.5524 68.1628 17.0003C67.9459 16.9214 67.8867 16.8425 67.8867 16.8425C67.8867 16.8425 67.8867 16.7834 67.9064 16.6454C68.1825 15.2652 68.498 14.2596 69.2472 13.7666C70.588 12.6427 71.8696 12.5047 73.9005 13.254C74.0583 13.3131 74.1174 13.3723 74.1174 13.3723C74.1174 13.3723 74.1569 13.4709 74.0977 13.7864C73.9202 15.1469 73.1513 16.2707 72.0077 16.882Z" fill="#E68635"/>
<path d="M21.512 31.1177L21.4726 31.0388C20.7431 29.7375 20.2896 28.6136 20.4473 27.332C20.6248 25.1236 21.9064 23.5068 24.726 21.9294C25.0217 21.7717 25.14 21.752 25.1992 21.752C25.2781 21.752 25.4161 21.8505 25.5541 22.028C27.1709 23.8026 27.7822 25.38 27.585 27.1348C27.585 27.1545 27.585 27.1742 27.585 27.2137C24.9429 27.6277 23.5824 29.3234 22.281 30.96C22.1233 31.1572 21.9458 31.374 21.7881 31.5712C21.7487 31.5318 21.512 31.1177 21.512 31.1177Z" fill="#D5464B"/>
<path d="M28.7475 3.19302C29.5953 4.65211 29.0432 5.95346 28.4123 7.45198C28.4123 7.45198 28.294 7.72802 28.294 7.74774C28.2348 7.74774 28.1165 7.72802 27.9193 7.64915C25.1589 6.56469 24.2125 4.49437 25.2969 1.83252C25.5138 1.31987 25.711 1.16213 25.8096 1.10298C26.0265 1.00439 26.4208 1.14241 26.6969 1.26072C27.6039 1.67478 28.294 2.32546 28.7475 3.19302Z" fill="#7BA333"/>
<path d="M9.22801 48.3033C10.9237 47.7315 12.1462 48.3033 13.5855 48.9934L13.8616 49.1314C13.8616 49.1709 13.8222 49.2695 13.7039 49.4272C12.0476 51.6553 9.72094 52.2468 7.15768 51.0835C6.66474 50.8468 6.52672 50.6694 6.50701 50.5905C6.44785 50.3933 6.66474 50.0779 6.8422 49.861C7.45344 49.1314 8.26185 48.5991 9.22801 48.3033Z" fill="#004D36"/>
<path d="M74.7097 37.1124C76.3857 35.1012 78.4954 35.6139 79.8756 36.7772H79.8954C79.9939 36.8758 80.0531 36.9349 79.9348 37.1715C79.4221 38.1968 78.5151 38.9067 77.4898 39.1236C76.4054 39.3404 75.3012 39.025 74.3745 38.2363C74.2956 38.1771 74.2168 38.0982 74.1379 38.0194L74.1182 37.9997C74.1182 37.9799 74.1182 37.9602 74.1576 37.8814C74.2168 37.6842 74.3548 37.5462 74.4928 37.3687C74.5717 37.2898 74.6505 37.211 74.7097 37.1124Z" fill="#CD3758"/>
<path d="M22.3013 51.2914C22.2421 51.2914 22.1435 51.2914 22.0449 51.2914C21.9464 51.2717 21.6506 51.3308 21.5717 51.2125C21.5126 51.0942 21.5914 50.8971 21.6506 50.7393C21.9661 49.9112 22.4393 49.1619 23.2083 48.6887C23.8787 48.2746 24.5096 48.2944 25.2392 48.3141C25.3378 48.3141 25.3772 48.3141 25.4363 48.3929C25.4955 48.4521 25.4758 48.531 25.4561 48.6295C25.2786 49.3788 24.8843 50.0886 24.2927 50.6013C23.6815 51.0942 23.0703 51.252 22.3013 51.2914Z" fill="#CD3758"/>
<path d="M37.1275 37.9172C37.0486 37.9369 36.95 37.9566 36.812 38.4101C36.2993 40.1649 36.674 41.9001 37.8176 43.1423C38.9612 44.3845 40.7555 45.0154 42.7272 44.838C42.7864 44.838 42.8455 44.8183 42.885 44.8183C43.0033 44.7985 43.0821 44.7591 43.161 44.3845C43.3187 43.5366 43.4765 42.4324 43.1413 41.4663L43.1216 41.4071C42.6484 39.0213 39.7696 37.7594 37.2655 37.8974C37.2063 37.9172 37.1472 37.9172 37.1275 37.9172Z" fill="#CD3758"/>
<path d="M55.7393 55.1504C54.221 55.2884 52.9788 56.7869 53.1366 58.2855C53.2943 59.7248 54.7337 60.9276 56.1928 60.829C57.6519 60.7304 58.9532 59.2122 58.8546 57.7925C58.7363 56.2743 57.2575 55.0321 55.7393 55.1504Z" fill="#004D36"/>
<path d="M50.2785 58.0441C50.3771 57.7286 50.8306 57.7877 50.87 58.1032C50.9686 59.2271 51.363 60.3313 51.9742 61.1988C52.9798 62.6185 54.7938 63.4466 56.5092 62.934C57.988 62.5002 59.2105 61.534 60.5119 60.7256C60.7879 60.5482 61.1034 60.9031 60.9062 61.1594C59.2105 63.3678 56.2135 67.5084 56.2135 71.1561C56.2332 74.8827 57.8894 78.5501 60.3344 80.7585C60.5907 80.9951 60.3344 81.3895 60.0189 81.2514C57.4754 80.1473 55.2079 78.0572 53.6305 75.3362C53.4925 75.0799 53.0981 75.1785 53.0784 75.4545C52.9009 77.6234 53.0192 79.8712 53.4136 82.0401C53.4727 82.3753 53.0192 82.5331 52.8615 82.2373C48.9575 75.2179 47.9519 65.9113 50.2785 58.0441Z" fill="#004D36"/>
<path d="M27.742 59.5872C28.8067 59.6858 29.6546 60.7309 29.556 61.7759C29.4574 62.7815 28.4321 63.6096 27.4265 63.5504C26.4209 63.4716 25.4942 62.4265 25.5731 61.421C25.6519 60.3562 26.6772 59.4887 27.742 59.5872Z" fill="#004D36"/>
<path d="M31.5276 61.6008C31.4684 61.3839 31.1333 61.4234 31.1135 61.6403C31.0347 62.429 30.7783 63.1979 30.3446 63.7895C29.6347 64.7753 28.3728 65.3471 27.1898 64.9922C26.1645 64.6965 25.3166 64.0064 24.3899 63.4543C24.1927 63.336 23.9758 63.5726 24.1139 63.75C25.2969 65.288 27.3869 68.1667 27.3672 70.7103C27.3475 73.2932 26.2039 75.8565 24.5082 77.4142C24.3308 77.5719 24.5082 77.8677 24.7251 77.7691C26.4997 77.0001 28.0771 75.541 29.1812 73.6482C29.2798 73.4707 29.5559 73.5299 29.5756 73.727C29.6939 75.2453 29.615 76.8029 29.339 78.3212C29.2995 78.5578 29.615 78.6564 29.7333 78.4592C32.4543 73.5496 33.1641 67.0625 31.5276 61.6008Z" fill="#004D36"/>
<path d="M50.4577 47.3624C50.7732 46.8301 49.4127 47.4807 49.2944 47.6187C47.5987 48.8018 43.182 52.8241 40.6779 59.6069C38.1738 52.8044 34.112 48.8018 32.4163 47.6187C32.2783 47.4807 30.9375 46.8301 31.253 47.3624C33.5796 51.3848 34.7627 55.4663 35.7485 60.0604C37.0499 66.0545 36.5175 72.1275 34.6444 77.9835C33.974 80.0539 32.8107 81.927 31.8445 83.8593C31.7656 84.0171 31.5487 84.4114 31.3713 84.7466C31.2135 85.0424 31.4107 85.3973 31.7459 85.3973C33.4416 85.417 38.9428 85.4761 40.8356 85.4761C40.8554 85.4761 40.8554 85.4761 40.8751 85.4761C40.8948 85.4761 40.8948 85.4761 40.9145 85.4761C42.8074 85.4761 48.3085 85.417 50.0042 85.3973C50.3197 85.3973 50.5366 85.0424 50.3789 84.7466C50.2014 84.4114 49.9845 84.0368 49.9056 83.8593C48.9395 81.927 47.7564 80.0539 47.1058 77.9835C45.2326 72.1275 44.7002 66.0545 46.0016 60.0604C46.948 55.4663 48.1311 51.3848 50.4577 47.3624Z" fill="#004D36"/>
</svg>
